<?xml version="1.0" encoding="UTF-8"?>
<svg enable-background="new 0 0 1000 1000" version="1.1" viewBox="0 0 1000 1000" xml:space="preserve" xmlns="http://www.w3.org/2000/svg" xmlns:xlink="http://www.w3.org/1999/xlink">
<style type="text/css">
	.st0{opacity:0.4;}
	.st1{enable-background:new    ;}
	.st2{clip-path:url(#bq);}
	.st3{fill:#4B25B7;}
	.st4{opacity:0.2;}
	.st5{clip-path:url(#au);}
	.st6{fill:#37B5F4;}
	.st7{clip-path:url(#y);}
	.st8{fill:#7CE7F2;}
	.st9{clip-path:url(#c);}
	.st10{clip-path:url(#cl);}
	.st11{clip-path:url(#cj);}
	.st12{clip-path:url(#ch);}
	.st13{clip-path:url(#cf);}
	.st14{clip-path:url(#cd);}
	.st15{clip-path:url(#ca);}
	.st16{clip-path:url(#by);}
	.st17{fill:#2833C0;}
	.st18{clip-path:url(#bw);}
	.st19{clip-path:url(#bu);}
	.st20{clip-path:url(#bp);}
	.st21{clip-path:url(#bn);}
	.st22{clip-path:url(#bl);}
	.st23{clip-path:url(#bj);}
	.st24{clip-path:url(#bh);}
	.st25{clip-path:url(#be);}
	.st26{clip-path:url(#ba);}
	.st27{clip-path:url(#ay);}
	.st28{clip-path:url(#aw);}
	.st29{fill:none;stroke:#2833C0;stroke-width:3;stroke-miterlimit:10;}
	.st30{fill:none;stroke:url(#av);stroke-width:3;stroke-linecap:round;stroke-miterlimit:10;}
	.st31{fill:none;stroke:url(#at);stroke-width:3;stroke-linecap:round;stroke-miterlimit:10;}
	.st32{clip-path:url(#ar);}
	.st33{clip-path:url(#ap);}
	.st34{clip-path:url(#an);}
	.st35{clip-path:url(#al);}
	.st36{clip-path:url(#ai);}
	.st37{clip-path:url(#ag);}
	.st38{clip-path:url(#ae);}
	.st39{clip-path:url(#ac);}
	.st40{clip-path:url(#aa);}
	.st41{clip-path:url(#x);}
	.st42{clip-path:url(#v);}
	.st43{clip-path:url(#t);}
	.st44{clip-path:url(#r);}
	.st45{clip-path:url(#p);}
	.st46{fill:#C92F5B;stroke:#4CF2E2;stroke-width:4;stroke-linecap:round;stroke-linejoin:round;stroke-miterlimit:10;}
	.st47{fill:none;stroke:#FFFFFF;stroke-width:7.536;stroke-miterlimit:10;}
	.st48{clip-path:url(#m);}
	.st49{fill:#0DCC87;}
	.st50{fill:#4CF2E2;}
	.st51{fill:#FFFFFF;}
	.st52{clip-path:url(#k);}
	.st53{clip-path:url(#i);}
	.st54{opacity:0.2;fill:#37B5F4;}
	.st55{fill:#EDCC45;}
	.st56{fill:#D852EF;}
	.st57{clip-path:url(#g);}
	.st58{clip-path:url(#e);}
	.st59{clip-path:url(#b);}
	.st60{fill:#337CF2;}
	.st61{fill:#F4CCB8;}
	.st62{fill:#256ED8;}
	.st63{fill:#23283F;}
	.st64{fill:#E2A333;}
	.st65{fill:#D3AA9B;}
	.st66{fill:none;stroke:#4CF2E2;stroke-width:0.5;stroke-linejoin:round;stroke-miterlimit:10;}
	.st67{fill:none;stroke:#337CF2;stroke-width:0.75;stroke-miterlimit:10;}
	.st68{fill:none;stroke:#7CE7F2;stroke-width:0.5;stroke-miterlimit:10;}
	.st69{fill:#1D65BC;}
	.st70{fill:#155284;}
	.st71{fill:#5ADCE2;}
	.st72{fill:none;stroke:#7CE7F2;stroke-width:0.75;stroke-miterlimit:10;}
	.st73{fill:#438AEF;}
	.st74{fill:none;stroke:#337CF2;stroke-width:0.5;stroke-miterlimit:10;}
	.st75{fill:none;stroke:#337CF2;stroke-width:0.5;stroke-linecap:round;stroke-miterlimit:10;}
	.st76{fill:none;stroke:#155284;stroke-linecap:round;stroke-miterlimit:10;}
</style>
	<g class="st0">
			<g class="st1">
				<defs>
					<polygon id="cb" class="st1" points="273.9 523 273.4 338.7 464.7 228.2 465.3 412.5"/>
				</defs>
				<clipPath id="bq">
					<use xlink:href="#cb"/>
				</clipPath>
				<g class="st2">
								<path class="st3" d="m460.5 230.7l-182.9 105.6c-2.3 1.3-4.2 4.6-4.2 7.3l0.5 174.6c0 2.7 1.9 3.8 4.2 2.4l182.9-105.6c2.3-1.3 4.2-4.6 4.2-7.3l-0.5-174.6c0.1-2.7-1.9-3.8-4.2-2.4"/>
				</g>
			</g>
	</g>
	<g class="st4">
			<g class="st1">
				<defs>
					<polygon id="bf" class="st1" points="183 372.4 182.7 275.3 261.9 229.6 262.2 326.6"/>
				</defs>
				<clipPath id="au">
					<use xlink:href="#bf"/>
				</clipPath>
				<g class="st5">
								<path class="st6" d="m258.4 231.6l-72.1 41.7c-2 1.1-3.5 3.9-3.5 6.1l0.3 88.9c0 2.3 1.6 3.2 3.6 2l72.1-41.7c2-1.1 3.5-3.9 3.5-6.1l-0.3-88.9c0-2.2-1.6-3.1-3.6-2"/>
				</g>
			</g>
	</g>
			<g class="st1">
				<defs>
					<polygon id="aj" class="st1" points="168.3 373.6 168 274.9 248.6 228.3 248.9 327"/>
				</defs>
				<clipPath id="y">
					<use xlink:href="#aj"/>
				</clipPath>
				<g class="st7">
								<path class="st8" d="m172.5 369.5c-1.6 0.9-2.8 0.2-2.8-1.6l-0.3-88.9c0-1.8 1.3-4 2.8-4.9l72.1-41.7c1.6-0.9 2.8-0.2 2.8 1.6l0.3 88.9c0 1.8-1.3 4-2.8 4.9l-72.1 41.7m71.9-138.7l-72.1 41.7c-2.3 1.4-4.3 4.7-4.2 7.3l0.3 88.9c0 2.7 1.9 3.8 4.3 2.4l72.1-41.7c2.3-1.4 4.3-4.7 4.2-7.3l-0.3-88.9c-0.1-2.7-2-3.8-4.3-2.4"/>
				</g>
			</g>
	<g class="st4">
			<g class="st1">
				<defs>
					<polygon id="n" class="st1" points="96.2 441.4 96 378.7 147.1 349.2 147.3 411.9"/>
				</defs>
				<clipPath id="c">
					<use xlink:href="#n"/>
				</clipPath>
				<g class="st9">
								<path class="st6" d="m143.6 351.3l-44 25.4c-2 1.1-3.5 3.9-3.5 6.1l0.2 54.5c0 2.3 1.6 3.2 3.6 2l44-25.4c2-1.1 3.5-3.9 3.5-6.1l-0.2-54.5c0-2.2-1.6-3.1-3.6-2"/>
				</g>
			</g>
	</g>
			<g class="st1">
				<defs>
					<polygon id="a" class="st1" points="86.5 442.6 86.3 378.3 138.8 348 139 412.3"/>
				</defs>
				<clipPath id="cl">
					<use xlink:href="#a"/>
				</clipPath>
				<g class="st10">
								<path class="st8" d="m90.7 438.5c-1.6 0.9-2.8 0.2-2.9-1.6l-0.2-54.5c0-1.8 1.3-4 2.8-4.9l44-25.4c1.6-0.9 2.8-0.2 2.9 1.6l0.2 54.5c0 1.8-1.3 4-2.8 4.9l-44 25.4m43.9-88l-44 25.4c-2.3 1.4-4.3 4.7-4.2 7.3l0.2 54.5c0 2.7 1.9 3.8 4.3 2.4l44-25.4c2.3-1.4 4.3-4.7 4.2-7.4l-0.2-54.5c-0.1-2.6-2-3.7-4.3-2.3"/>
				</g>
			</g>
	<g class="st0">
			<g class="st1">
				<defs>
					<polygon id="ck" class="st1" points="153.4 468.4 153.3 410 200.9 382.5 201.1 440.9"/>
				</defs>
				<clipPath id="cj">
					<use xlink:href="#ck"/>
				</clipPath>
				<g class="st11">
								<path class="st3" d="m197.4 384.5l-40.6 23.5c-2 1.1-3.5 3.9-3.5 6.1l0.1 50.3c0 2.3 1.6 3.2 3.6 2l40.6-23.4c2-1.1 3.5-3.9 3.5-6.1l-0.1-50.3c0-2.3-1.6-3.2-3.6-2.1"/>
				</g>
			</g>
	</g>
	<g class="st0">
			<g class="st1">
				<defs>
					<polygon id="ci" class="st1" points="626.8 353.5 627 254.2 726 311.4 725.7 410.7"/>
				</defs>
				<clipPath id="ch">
					<use xlink:href="#ci"/>
				</clipPath>
				<g class="st12">
								<path class="st3" d="m722.5 309.3l-91.9-53c-2-1.1-3.5-0.2-3.6 2l-0.3 91.1c0 2.2 1.6 5 3.5 6.1l91.9 53c2 1.1 3.6 0.2 3.6-2l0.3-91.1c0-2.2-1.6-4.9-3.5-6.1"/>
				</g>
			</g>
	</g>
	<g class="st0">
			<g class="st1">
				<defs>
					<polygon id="cg" class="st1" points="740.4 318.3 740.5 268 784.3 293.3 784.2 343.6"/>
				</defs>
				<clipPath id="cf">
					<use xlink:href="#cg"/>
				</clipPath>
				<g class="st13">
								<path class="st3" d="m780.8 291.2l-36.8-21.2c-2-1.1-3.5-0.2-3.6 2l-0.1 42.2c0 2.3 1.6 5 3.5 6.1l36.7 21.2c2 1.1 3.6 0.2 3.6-2l0.1-42.2c0.1-2.2-1.5-5-3.4-6.1"/>
				</g>
			</g>
	</g>
			<g class="st1">
				<defs>
					<polygon id="ce" class="st1" points="808 352.4 808.2 300.5 853.4 326.6 853.2 378.5"/>
				</defs>
				<clipPath id="cd">
					<use xlink:href="#ce"/>
				</clipPath>
				<g class="st14">
								<path class="st8" d="m812.3 353.3c-1.6-0.9-2.8-3.1-2.8-4.9l0.1-42.2c0-1.8 1.3-2.5 2.9-1.6l36.7 21.2c1.6 0.9 2.8 3.1 2.8 4.9l-0.1 42.2c0 1.8-1.3 2.5-2.8 1.6l-36.8-21.2m36.8-29.2l-36.7-21.2c-2.3-1.4-4.3-0.3-4.3 2.4l-0.1 42.2c0 2.7 1.9 6 4.2 7.4l36.7 21.2c2.3 1.4 4.3 0.3 4.3-2.4l0.1-42.2c0.1-2.7-1.8-6-4.2-7.4"/>
				</g>
			</g>
	<g class="st4">
			<g class="st1">
				<defs>
					<polygon id="cc" class="st1" points="797.4 355.8 797.5 305.5 841.3 330.7 841.2 381.1"/>
				</defs>
				<clipPath id="ca">
					<use xlink:href="#cc"/>
				</clipPath>
				<g class="st15">
								<path class="st6" d="m837.8 328.7l-36.7-21.2c-2-1.1-3.5-0.2-3.6 2l-0.1 42.2c0 2.2 1.6 5 3.5 6.1l36.7 21.2c2 1.1 3.5 0.2 3.6-2l0.1-42.2c0-2.2-1.6-5-3.5-6.1"/>
				</g>
			</g>
	</g>
			<g class="st1">
				<defs>
					<polygon id="bz" class="st1" points="373.3 700.3 449.1 656.3 537.9 707.6 462.2 751.6"/>
				</defs>
				<clipPath id="by">
					<use xlink:href="#bz"/>
				</clipPath>
				<g class="st16">
								<polyline class="st17" points="537.9 707.6 535.1 705.9 462.2 748.3 376.2 698.7 373.3 700.3 462.2 751.6 537.9 707.6"/>
				</g>
			</g>
			<g class="st1">
				<defs>
					<polygon id="bx" class="st1" points="397.5 714.8 448.9 684.9 513.5 722.2 462.1 752.1"/>
				</defs>
				<clipPath id="bw">
					<use xlink:href="#bx"/>
				</clipPath>
				<g class="st18">
									<defs>
										<path id="bv" d="m510.3 721.6c-0.6-0.3-1.5-0.3-2.1 0l-46.3 26.9-59.3-34.2c-0.6-0.3-1.5-0.3-2.1 0s-0.6 0.9 0 1.2l61.4 35.5 48.4-28.1c0.6-0.4 0.6-0.9 0-1.3"/>
									</defs>
									<clipPath id="bu">
										<use xlink:href="#bv"/>
									</clipPath>
									<g class="st19">
										<defs>
											<polyline id="bt" points="462.1 752.1 397.5 714.8 448.9 684.9 513.5 722.2 462.1 752.1"/>
										</defs>
										<clipPath id="bs">
											<use xlink:href="#bt"/>
										</clipPath>
										<g clip-path="url(#bs)">
												<image transform="translate(397.5 684.91)" width="117" height="68" overflow="visible" xlink:href="59E4968B.jpg">
											</image>
										</g>
									</g>
				</g>
			</g>
			<g class="st1">
				<defs>
					<polygon id="br" class="st1" points="396.9 685.6 447.7 656.2 512.2 693.4 461.5 722.9"/>
				</defs>
				<clipPath id="bp">
					<use xlink:href="#br"/>
				</clipPath>
				<g class="st20">
								<polyline class="st17" points="512.2 693.4 509.4 691.8 461.5 719.6 399.8 684 396.9 685.6 461.5 722.9 512.2 693.4"/>
				</g>
			</g>
			<g class="st1">
				<defs>
					<polygon id="bo" class="st1" points="387.5 528 458.8 486.6 492.7 506.1 421.4 547.5"/>
				</defs>
				<clipPath id="bn">
					<use xlink:href="#bo"/>
				</clipPath>
				<g class="st21">
								<polyline class="st17" points="461.6 488.2 458.8 486.6 422 508 453 525.9 418.6 545.9 421.4 547.5 458.7 525.9 427.6 508 461.6 488.2"/>
				</g>
			</g>
			<g class="st1">
				<defs>
					<polygon id="bm" class="st1" points="596.7 498.3 630.3 478.7 702.1 520.1 668.4 539.7"/>
				</defs>
				<clipPath id="bl">
					<use xlink:href="#bm"/>
				</clipPath>
				<g class="st22">
								<polyline class="st17" points="702.1 520.1 654.7 492.7 623.8 510.7 599.5 496.6 596.7 498.3 623.8 513.9 654.7 496 699.2 521.7 702.1 520.1"/>
				</g>
			</g>
			<g class="st1">
				<defs>
					<polygon id="bk" class="st1" points="574.9 511.2 577.7 509.6 646.1 549 643.3 550.7"/>
				</defs>
				<clipPath id="bj">
					<use xlink:href="#bk"/>
				</clipPath>
				<g class="st23">
								<polyline class="st17" points="646.1 549 577.7 509.6 574.9 511.2 643.3 550.7 646.1 549"/>
				</g>
			</g>
			<g class="st1">
				<defs>
					<polygon id="bi" class="st1" points="598 525.8 602.3 523.3 642 546.2 637.7 548.7"/>
				</defs>
				<clipPath id="bh">
					<use xlink:href="#bi"/>
				</clipPath>
				<g class="st24">
									<defs>
										<path id="bg" d="m639.2 545.5l-35.4-20.5c-0.6-0.3-1.5-0.3-2.1 0s-0.6 0.9 0 1.2l35.4 20.4c0.6 0.3 1.5 0.3 2.1 0s0.6-0.8 0-1.1"/>
									</defs>
									<clipPath id="be">
										<use xlink:href="#bg"/>
									</clipPath>
									<g class="st25">
										<defs>
											<polyline id="bd" points="637.7 548.7 598 525.8 602.3 523.3 642 546.2 637.7 548.7"/>
										</defs>
										<clipPath id="bc">
											<use xlink:href="#bd"/>
										</clipPath>
										<g clip-path="url(#bc)">
												<image transform="translate(598.02 523.3)" width="44" height="26" overflow="visible" xlink:href="59E49689.jpg">
											</image>
										</g>
									</g>
				</g>
			</g>
			<g class="st1">
				<defs>
					<polygon id="bb" class="st1" points="162.3 647.5 209.7 620 212.6 621.6 165.2 649.1"/>
				</defs>
				<clipPath id="ba">
					<use xlink:href="#bb"/>
				</clipPath>
				<g class="st26">
								<polyline class="st17" points="212.6 621.6 209.7 620 162.3 647.5 165.2 649.1 212.6 621.6"/>
				</g>
			</g>
			<g class="st1">
				<defs>
					<polygon id="az" class="st1" points="172 655.5 219.4 628 222.2 629.6 174.8 657.2"/>
				</defs>
				<clipPath id="ay">
					<use xlink:href="#az"/>
				</clipPath>
				<g class="st27">
								<polyline class="st17" points="222.2 629.6 219.4 628 172 655.5 174.8 657.2 222.2 629.6"/>
				</g>
			</g>
			<g class="st1">
				<defs>
					<polygon id="ax" class="st1" points="406.3 538.9 477.6 497.5 540 533.5 468.7 574.9"/>
				</defs>
				<clipPath id="aw">
					<use xlink:href="#ax"/>
				</clipPath>
				<g class="st28">
								<polyline class="st17" points="480.4 499.1 477.6 497.5 456.4 509.8 516 544.2 465.9 573.3 468.7 574.9 521.6 544.2 462 509.8 480.4 499.1"/>
				</g>
			</g>
	<polyline class="st29" points="249 579.5 208.5 554.2 208.5 461.2 405.1 349.4"/>
	<linearGradient id="av" x1="206.95" x2="288.99" y1="459.92" y2="459.92" gradientUnits="userSpaceOnUse">
		<stop stop-color="#2833C0" offset="0"/>
		<stop stop-color="#4CF2E2" offset="1"/>
	</linearGradient>
	<polyline class="st30" points="208.5 503.6 208.5 461.2 287.5 416.3"/>
	<polyline class="st29" points="516.2 244.9 537 232.2 618 278.7 618 305.6"/>
	<polyline class="st29" points="460.9 454.6 447.7 448 447.7 408.4"/>
	<polyline class="st29" points="756.3 389.4 685 345.5 685 435.4 630.8 464.9"/>
	<linearGradient id="at" x1="683.48" x2="738.01" y1="368.63" y2="368.63" gradientUnits="userSpaceOnUse">
		<stop stop-color="#4CF2E2" offset="0"/>
		<stop stop-color="#2833C0" offset="1"/>
	</linearGradient>
	<polyline class="st31" points="736.5 377.2 685 345.5 685 392.9"/>
	<polyline class="st29" points="834.2 472.4 834.2 497.6 808.7 483.6 808.7 520.9 782.4 535.1"/>
			<g class="st1">
				<defs>
					<polygon id="as" class="st1" points="191.9 610.6 359.8 513 528.8 610.6 360.9 708.1"/>
				</defs>
				<clipPath id="ar">
					<use xlink:href="#as"/>
				</clipPath>
				<g class="st32">
								<path class="st8" d="m197.5 612.2c-1.6-0.9-1.6-2.4 0-3.3l159.5-92.6c1.6-0.9 4.1-0.9 5.7 0l160.5 92.7c1.6 0.9 1.6 2.4 0 3.3l-159.5 92.7c-1.6 0.9-4.1 0.9-5.7 0l-160.5-92.8m327-4.1l-160.5-92.7c-2.3-1.4-6.2-1.4-8.5 0l-159.5 92.7c-2.3 1.4-2.3 3.6 0 4.9l160.5 92.7c2.3 1.4 6.2 1.4 8.5 0l159.6-92.7c2.3-1.3 2.3-3.5-0.1-4.9"/>
				</g>
			</g>
			<g class="st1">
				<defs>
					<polygon id="aq" class="st1" points="80.1 674.8 143.4 638.1 207 674.8 143.8 711.6"/>
				</defs>
				<clipPath id="ap">
					<use xlink:href="#aq"/>
				</clipPath>
				<g class="st33">
								<path class="st8" d="m85.8 676.5c-1.6-0.9-1.6-2.4 0-3.3l54.8-31.8c1.6-0.9 4.1-0.9 5.7 0l55.2 31.8c1.6 0.9 1.6 2.4 0 3.3l-54.8 31.8c-1.6 0.9-4.1 0.9-5.7 0l-55.2-31.8m117-4.1l-55.2-31.8c-2.3-1.4-6.2-1.4-8.5 0l-54.8 31.8c-2.3 1.4-2.3 3.6 0 4.9l55.2 31.8c2.3 1.4 6.1 1.4 8.5 0l54.8-31.8c2.3-1.4 2.3-3.6 0-4.9"/>
				</g>
			</g>
			<g class="st1">
				<defs>
					<polygon id="ao" class="st1" points="804.6 655.2 828.1 641.6 851.7 655.2 828.2 668.8"/>
				</defs>
				<clipPath id="an">
					<use xlink:href="#ao"/>
				</clipPath>
				<g class="st34">
								<path class="st8" d="m810.3 656.8c-1.6-0.9-1.6-2.4 0-3.3l15-8.7c1.6-0.9 4.1-0.9 5.7 0l15.1 8.7c1.6 0.9 1.6 2.4 0 3.3l-15 8.7c-1.6 0.9-4.1 0.9-5.7 0l-15.1-8.7m37.1-4.1l-15.1-8.7c-2.3-1.4-6.2-1.4-8.5 0l-15 8.7c-2.3 1.4-2.3 3.6 0 4.9l15.1 8.7c2.3 1.4 6.2 1.4 8.5 0l15-8.7c2.4-1.3 2.3-3.5 0-4.9"/>
				</g>
			</g>
			<g class="st1">
				<defs>
					<polygon id="am" class="st1" points="848.1 635.7 891.4 610.5 935.1 635.7 891.7 660.9"/>
				</defs>
				<clipPath id="al">
					<use xlink:href="#am"/>
				</clipPath>
				<g class="st35">
								<path class="st8" d="m853.8 637.3c-1.6-0.9-1.6-2.4 0-3.3l34.9-20.3c1.6-0.9 4.1-0.9 5.7 0l35.1 20.3c1.6 0.9 1.6 2.4 0 3.3l-34.9 20.3c-1.6 0.9-4.1 0.9-5.7 0l-35.1-20.3m77-4.1l-35.1-20.2c-2.3-1.4-6.2-1.4-8.5 0l-34.9 20.3c-2.3 1.4-2.3 3.6 0 4.9l35.1 20.3c2.3 1.4 6.2 1.4 8.5 0l34.9-20.3c2.4-1.4 2.4-3.6 0-5"/>
				</g>
			</g>
			<g class="st1">
				<defs>
					<polygon id="ak" class="st1" points="494.9 684.1 577.2 636.2 660 684.1 577.7 731.9"/>
				</defs>
				<clipPath id="ai">
					<use xlink:href="#ak"/>
				</clipPath>
				<g class="st36">
								<path class="st8" d="m500.6 685.7c-1.6-0.9-1.6-2.4 0-3.3l73.8-42.9c1.6-0.9 4.1-0.9 5.7 0l74.3 42.9c1.6 0.9 1.6 2.4 0 3.3l-73.8 42.9c-1.6 0.9-4.1 0.9-5.7 0l-74.3-42.9m155.1-4.1l-74.3-42.9c-2.3-1.4-6.2-1.4-8.5 0l-73.8 42.9c-2.3 1.4-2.3 3.6 0 4.9l74.3 42.9c2.3 1.4 6.1 1.4 8.5 0l73.8-42.9c2.4-1.3 2.4-3.5 0-4.9"/>
				</g>
			</g>
			<g class="st1">
				<defs>
					<polygon id="ah" class="st1" points="582.9 585.1 725.5 502.2 869 585.1 726.4 667.9"/>
				</defs>
				<clipPath id="ag">
					<use xlink:href="#ah"/>
				</clipPath>
				<g class="st37">
								<path class="st8" d="m588.6 586.7c-1.6-0.9-1.6-2.4 0-3.3l134.1-77.9c1.6-0.9 4.1-0.9 5.7 0l135 77.9c1.6 0.9 1.6 2.4 0 3.3l-134.1 77.9c-1.6 0.9-4.1 0.9-5.7 0l-135-77.9m276.1-4.1l-135-77.9c-2.3-1.4-6.2-1.4-8.5 0l-134.1 77.9c-2.3 1.4-2.3 3.6 0 4.9l135 77.9c2.3 1.4 6.1 1.4 8.5 0l134.1-77.9c2.4-1.3 2.3-3.5 0-4.9"/>
				</g>
			</g>
			<g class="st1">
				<defs>
					<polygon id="af" class="st1" points="430.7 471.5 536.8 409.8 643.6 471.5 537.5 533.1"/>
				</defs>
				<clipPath id="ae">
					<use xlink:href="#af"/>
				</clipPath>
				<g class="st38">
								<path class="st8" d="m436.4 473.1c-1.6-0.9-1.6-2.4 0-3.3l97.6-56.7c1.6-0.9 4.1-0.9 5.7 0l98.3 56.7c1.6 0.9 1.6 2.4 0 3.3l-97.6 56.7c-1.6 0.9-4.1 0.9-5.7 0l-98.3-56.7m202.9-4.1l-98.3-56.7c-2.3-1.4-6.2-1.4-8.5 0l-97.5 56.7c-2.3 1.4-2.3 3.6 0 4.9l98.3 56.7c2.3 1.4 6.2 1.4 8.5 0l97.6-56.7c2.3-1.3 2.3-3.5-0.1-4.9"/>
				</g>
			</g>
	<g class="st4">
			<g class="st1">
				<defs>
					<polygon id="ad" class="st1" points="81.5 662.8 143.4 626.9 205.6 662.8 143.8 698.8"/>
				</defs>
				<clipPath id="ac">
					<use xlink:href="#ad"/>
				</clipPath>
				<g class="st39">
								<path class="st6" d="m202.1 660.8l-55.2-31.8c-2-1.1-5.1-1.1-7.1 0l-54.8 31.8c-1.9 1.1-1.9 3 0 4.1l55.2 31.8c2 1.1 5.1 1.1 7.1 0l54.8-31.8c2-1.2 1.9-3 0-4.1"/>
				</g>
			</g>
	</g>
	<g class="st4">
			<g class="st1">
				<defs>
					<polygon id="ab" class="st1" points="806 647.2 828.1 634.4 850.2 647.2 828.2 660"/>
				</defs>
				<clipPath id="aa">
					<use xlink:href="#ab"/>
				</clipPath>
				<g class="st40">
								<path class="st6" d="m846.7 645.1l-15.1-8.7c-2-1.1-5.1-1.1-7.1 0l-15 8.7c-1.9 1.1-1.9 3 0 4.1l15.1 8.7c2 1.1 5.1 1.1 7.1 0l15-8.7c2-1.1 2-2.9 0-4.1"/>
				</g>
			</g>
	</g>
	<g class="st4">
			<g class="st1">
				<defs>
					<polygon id="z" class="st1" points="849.5 625.7 891.4 601.3 933.7 625.7 891.7 650.1"/>
				</defs>
				<clipPath id="x">
					<use xlink:href="#z"/>
				</clipPath>
				<g class="st41">
								<path class="st6" d="m930.1 623.6l-35.1-20.2c-2-1.1-5.1-1.1-7.1 0l-34.9 20.2c-1.9 1.1-1.9 3 0 4.1l35.1 20.3c2 1.1 5.1 1.1 7.1 0l34.9-20.3c2-1.1 2-2.9 0-4.1"/>
				</g>
			</g>
	</g>
	<g class="st4">
			<g class="st1">
				<defs>
					<polygon id="w" class="st1" points="496.3 673.1 577.2 626.1 658.6 673.1 577.7 720.1"/>
				</defs>
				<clipPath id="v">
					<use xlink:href="#w"/>
				</clipPath>
				<g class="st42">
								<path class="st6" d="m655 671l-74.3-42.9c-2-1.1-5.1-1.1-7.1 0l-73.8 42.9c-1.9 1.1-1.9 3 0 4.1l74.3 42.9c2 1.1 5.1 1.1 7.1 0l73.8-42.9c2-1.1 2-2.9 0-4.1"/>
				</g>
			</g>
	</g>
	<g class="st4">
			<g class="st1">
				<defs>
					<polygon id="u" class="st1" points="584.4 565.1 725.5 483 867.5 565.1 726.4 647.1"/>
				</defs>
				<clipPath id="t">
					<use xlink:href="#u"/>
				</clipPath>
				<g class="st43">
								<path class="st6" d="m864 563l-135-77.9c-2-1.1-5.1-1.1-7.1 0l-134 77.9c-1.9 1.1-1.9 3 0 4.1l135 77.9c2 1.1 5.1 1.1 7.1 0l134-77.9c2-1.1 2-2.9 0-4.1"/>
				</g>
			</g>
	</g>
	<g class="st4">
			<g class="st1">
				<defs>
					<polygon id="s" class="st1" points="432.2 451.5 536.8 390.7 642.2 451.5 537.5 512.3"/>
				</defs>
				<clipPath id="r">
					<use xlink:href="#s"/>
				</clipPath>
				<g class="st44">
								<path class="st6" d="m638.6 449.4l-98.3-56.7c-2-1.1-5.1-1.1-7.1 0l-97.6 56.7c-1.9 1.1-1.9 3 0 4.1l98.3 56.7c2 1.1 5.1 1.1 7.1 0l97.6-56.7c2-1.1 2-2.9 0-4.1"/>
				</g>
			</g>
	</g>
	<g class="st4">
			<g class="st1">
				<defs>
					<polygon id="q" class="st1" points="193.3 578.6 359.8 481.8 527.4 578.6 360.9 675.3"/>
				</defs>
				<clipPath id="p">
					<use xlink:href="#q"/>
				</clipPath>
				<g class="st45">
								<path class="st6" d="m523.8 576.5l-160.5-92.7c-2-1.1-5.1-1.1-7.1 0l-159.5 92.7c-1.9 1.1-1.9 3 0 4.1l160.5 92.7c2 1.1 5.1 1.1 7.1 0l159.5-92.7c2-1.1 2-2.9 0-4.1"/>
				</g>
			</g>
	</g>
		<path class="st46" d="m368.3 405.3c0 13.6-9.2 25.1-21.7 28.6l-7.7 18.3-7.6-18c-12.9-3.2-22.5-14.9-22.5-28.9 0-16.4 13.3-29.8 29.8-29.8 16.4 0.1 29.7 13.4 29.7 29.8z"/>
			<line class="st47" x1="327.4" x2="349.7" y1="394.2" y2="416.5"/>
			<line class="st47" x1="327.4" x2="349.7" y1="416.5" y2="394.2"/>
			<g class="st1">
				<defs>
					<polygon id="o" class="st1" points="532 573.8 532.2 508 577.3 534.1 577.1 599.8"/>
				</defs>
				<clipPath id="m">
					<use xlink:href="#o"/>
				</clipPath>
				<g class="st48">
								<path class="st49" d="m551.4 548.3l12-6.9 3.8 6.5-15.8 9-9.1-15.8 3.8-2.2 5.3 9.4m3.3-24c-5.4-3.1-10.4-3.4-13.9-1.4-3.6 2-5.8 6.4-5.8 12.7 0 5.3 1.6 11.1 4.2 16.5s6.4 10.4 10.6 14.1c0.4 0.4 0.8 0.9 1 1.5l4.1 13.5 4.2-8.9c0.2-0.4 0.5-0.5 0.9-0.4 4.1 1 7.7 0.3 10.3-2.1 2.6-2.3 4.1-6.2 4.1-11.4l1.4 0.8-1.4-0.8c0-6.3-2.2-13.2-5.7-19.3-3.6-6.3-8.5-11.6-14-14.8"/>
								<path class="st50" d="m554.8 521.1c-12.4-7.2-22.6-1.4-22.6 12.9 0 6.1 1.8 12.7 4.8 18.9 2.9 5.9 6.9 11.3 11.5 15.5l5.1 16.9c0.2 0.7 0.7 1.4 1.3 1.7s1.1 0.2 1.3-0.2l5.3-11.2c4.5 1 8.3 0 11.1-2.5 2.9-2.7 4.7-7.1 4.7-13.1l-1.4-0.8-1.4-0.8c0 5.2-1.5 9.1-4.1 11.4s-6.2 3.1-10.3 2.1c-0.4-0.1-0.8 0-0.9 0.4l-4.2 8.9-4.1-13.5c-0.2-0.6-0.5-1.1-1-1.5-4.3-3.7-8-8.7-10.6-14.1s-4.2-11.2-4.2-16.5c0-6.3 2.2-10.6 5.8-12.7 3.6-2 8.5-1.7 13.9 1.4s10.3 8.5 13.9 14.7 5.7 13.1 5.7 19.3l1.4 0.8 1.4 0.8c0.1-14.2-10-31.7-22.4-38.8"/>
								<polyline class="st51" points="563.4 541.5 551.4 548.3 546 539.1 542.2 541.3 551.3 557 567.1 548 563.4 541.5"/>
				</g>
			</g>
			<g class="st1">
				<defs>
					<polygon id="l" class="st1" points="711.2 481.4 711.4 415.6 756.4 441.6 756.3 507.4"/>
				</defs>
				<clipPath id="k">
					<use xlink:href="#l"/>
				</clipPath>
				<g class="st52">
								<path class="st49" d="m730.5 455.9l12-6.9 3.8 6.5-15.8 9-9.1-15.8 3.8-2.2 5.3 9.4m3.4-24c-5.4-3.1-10.4-3.5-14-1.4-3.6 2-5.8 6.4-5.8 12.7 0 5.3 1.6 11.1 4.2 16.5s6.4 10.4 10.6 14.1c0.4 0.4 0.8 0.9 1 1.5l4.1 13.5 4.2-8.9c0.2-0.4 0.5-0.5 0.9-0.4 4.1 1 7.7 0.3 10.3-2.1 2.6-2.3 4.1-6.2 4.1-11.4l1.4 0.8-1.4-0.8c0-6.3-2.2-13.2-5.7-19.3-3.5-6.3-8.4-11.7-13.9-14.8"/>
								<path class="st50" d="m733.9 428.6c-12.5-7.2-22.6-1.4-22.6 12.9 0 6.1 1.8 12.7 4.8 18.9 2.9 5.9 6.9 11.3 11.5 15.5l5.1 16.9c0.2 0.7 0.7 1.4 1.3 1.7s1.1 0.2 1.3-0.2l5.3-11.2c4.5 1 8.3 0 11.1-2.5 2.9-2.7 4.7-7.1 4.7-13.1l-1.4-0.8-1.4-0.8c0 5.2-1.5 9.1-4.1 11.4s-6.1 3.1-10.3 2.1c-0.4-0.1-0.8 0-0.9 0.4l-4.2 8.9-4.1-13.5c-0.2-0.6-0.5-1.1-1-1.5-4.3-3.7-8-8.7-10.6-14.1s-4.2-11.2-4.2-16.5c0-6.3 2.2-10.6 5.8-12.7 3.6-2 8.5-1.7 14 1.4 5.4 3.1 10.3 8.5 13.9 14.7s5.7 13.1 5.7 19.3l1.4 0.8 1.4 0.8c0-14.2-10-31.6-22.5-38.8"/>
								<polyline class="st51" points="742.5 449.1 730.5 455.9 725.2 446.7 721.4 448.8 730.5 464.6 746.3 455.6 742.5 449.1"/>
				</g>
			</g>
			<g class="st1">
				<defs>
					<polygon id="j" class="st1" points="479.9 310.6 479.7 251.5 516.9 230 517 289.2"/>
				</defs>
				<clipPath id="i">
					<use xlink:href="#j"/>
				</clipPath>
				<g class="st53">
								<path class="st54" d="m506 288.6c-0.4 0.2-0.7 0-0.7-0.4v-1.1c0-0.5 0.3-1 0.7-1.2l5.5-3.2c0.4-0.2 0.7 0 0.7 0.4v1.1c0 0.4-0.3 1-0.7 1.2l-5.5 3.2m-19 3.5c-0.4 0.2-0.7 0-0.7-0.4v-1.1c0-0.4 0.3-1 0.7-1.2l12.4-7.1c0.4-0.2 0.7 0 0.7 0.4v1.1c0 0.5-0.3 1-0.7 1.2l-12.4 7.1m0-5.7c-0.4 0.2-0.7 0-0.7-0.4v-1.1c0-0.5 0.3-1 0.7-1.2l21.1-12.2c0.4-0.2 0.7 0 0.7 0.4v1.1c0 0.4-0.3 1-0.7 1.2l-21.1 12.2m11.4-19.9c2.4-1.4 4.5-4.1 5.5-7.1l4.5-0.1c-1.9 5.5-5.7 10.4-9.9 12.9-2.2 1.3-4.4 1.8-6.2 1.4l2.8-6.3c0.8 0.2 2-0.1 3.3-0.8m-1.6-13l-1.2-4.8c0.9-0.8 1.8-1.4 2.7-2 6.1-3.5 11.1-0.7 11.1 6.3 0 2-0.4 4.1-1.1 6.3l-4.5 0.1c0.4-1.2 0.6-2.4 0.6-3.4 0-3.9-2.8-5.4-6.1-3.5-0.5 0.2-1 0.6-1.5 1-2.7 2.4-4.6 6.2-4.6 9.5 0 2.3 1 3.9 2.7 4.3l-2.8 6.3c-3.1-0.6-4.9-3.5-4.9-7.7 0-5.8 3.4-12.9 8.3-17.1l1.3 4.7m15.8-19.4l-28.7 16.6c-1.6 0.9-2.8 3.1-2.8 4.9l0.1 49.3c0 1.8 1.3 2.5 2.8 1.6l28.7-16.6c1.6-0.9 2.8-3.1 2.8-4.9l-0.1-49.3c0.1-1.8-1.2-2.5-2.8-1.6"/>
								<path class="st8" d="m484.1 306.5c-1.6 0.9-2.8 0.2-2.8-1.6l-0.1-49.3c0-1.8 1.3-4 2.8-4.9l28.7-16.6c1.6-0.9 2.8-0.2 2.8 1.6l0.1 49.3c0 1.8-1.3 4-2.8 4.9l-28.7 16.6m28.5-74l-28.7 16.5c-2.3 1.4-4.3 4.7-4.2 7.4l0.1 49.3c0 2.7 1.9 3.8 4.3 2.4l28.7-16.6c2.3-1.4 4.2-4.6 4.2-7.3l-0.1-49.3c0-2.7-1.9-3.8-4.3-2.4"/>
								<path class="st55" d="m503.8 259.4c-1 3-3.1 5.8-5.5 7.1-1.2 0.7-2.4 1-3.4 0.8l-2.8 6.3c1.8 0.4 4-0.1 6.2-1.4 4.3-2.5 8.1-7.4 9.9-12.9l-4.4 0.1"/>
								<path class="st50" d="m498.3 246.7c-0.9 0.5-1.8 1.2-2.7 2l1.2 4.8c0.5-0.4 1-0.8 1.5-1.1 3.4-1.9 6.1-0.4 6.1 3.5 0 1.1-0.2 2.2-0.6 3.4l4.5-0.1c0.7-2.2 1.1-4.3 1.1-6.3 0-6.8-5-9.7-11.1-6.2"/>
								<path class="st56" d="m495.6 248.7c-4.9 4.3-8.3 11.3-8.3 17.1 0 4.2 1.8 7.1 4.9 7.7l2.8-6.3c-1.7-0.3-2.7-1.9-2.7-4.3 0-3.2 1.9-7.1 4.6-9.5l-1.3-4.7"/>
								<path class="st6" d="m508.1 271.6l-21.1 12.1c-0.4 0.2-0.7 0.8-0.7 1.2v1.1c0 0.4 0.3 0.6 0.7 0.4l21.1-12.2c0.4-0.2 0.7-0.8 0.7-1.2v-1.1c0-0.4-0.3-0.5-0.7-0.3"/>
								<path class="st6" d="m499.4 282.2l-12.4 7.1c-0.4 0.2-0.7 0.8-0.7 1.2v1.1c0 0.5 0.3 0.6 0.7 0.4l12.4-7.1c0.4-0.2 0.7-0.8 0.7-1.2v-1.1c0-0.4-0.3-0.6-0.7-0.4"/>
								<path class="st6" d="m511.5 282.8l-5.5 3.2c-0.4 0.2-0.7 0.8-0.7 1.2v1.1c0 0.4 0.3 0.6 0.7 0.4l5.5-3.2c0.4-0.2 0.7-0.8 0.7-1.2v-1.1c0-0.5-0.3-0.7-0.7-0.4"/>
				</g>
			</g>
			<g class="st1">
				<defs>
					<polygon id="h" class="st1" points="405.2 433.8 404.9 330.6 470.6 292.7 470.9 395.8"/>
				</defs>
				<clipPath id="g">
					<use xlink:href="#h"/>
				</clipPath>
				<g class="st57">
								<path class="st54" d="m455.1 361.7l-10.3 5.9c-1.6 0.9-2.8 3.1-2.8 4.9l0.1 18.4 10.3-5.9c1.6-0.9 2.8-3.1 2.8-4.9l-0.1-18.4m-40.4 32.4c-0.4 0.2-0.7 0-0.7-0.4v-1.8c0-0.5 0.3-1 0.7-1.2l14.1-8.1c0.4-0.2 0.7 0 0.7 0.4v1.8c0 0.4-0.3 1-0.7 1.2l-14.1 8.1m-0.1-25.6c-0.4 0.2-0.7 0-0.7-0.4v-1.8c0-0.5 0.3-1 0.7-1.2l21.8-12.6c0.4-0.2 0.7-0.1 0.7 0.4v1.8c0 0.4-0.3 1-0.7 1.2l-21.8 12.6m0-11.1c-0.4 0.2-0.7 0-0.7-0.4v-1.8c0-0.5 0.3-1 0.7-1.2l14.1-8.1c0.4-0.2 0.7 0 0.7 0.4v1.8c0 0.4-0.3 1-0.7 1.2l-14.1 8.1m-0.1-9.2c-0.4 0.2-0.7 0-0.7-0.4v-1.8c0-0.5 0.3-1 0.7-1.2l29.5-17c0.4-0.2 0.7 0 0.7 0.4v1.8c0 0.4-0.3 1-0.7 1.2l-29.5 17m0-9.1c-0.4 0.2-0.7 0-0.7-0.4v-1.8c0-0.5 0.3-1 0.7-1.2l29.5-17c0.4-0.2 0.7 0 0.7 0.4v1.8c0 0.4-0.3 1-0.7 1.2l-29.5 17m37.6-34.1l-42.9 24.8c-1.6 0.9-2.8 3.1-2.8 4.9l0.2 73.5c0 1.8 1.3 2.5 2.9 1.6l31.2-18-0.1-18.4c0-2.7 1.9-6 4.2-7.3l10.3-5.9-0.2-53.4c0-1.9-1.3-2.7-2.8-1.8"/>
								<path class="st8" d="m456.5 360.9l-1.4 0.8 0.1 18.4c0 1.8-1.3 4-2.8 4.9l-10.3 5.9v1.6l10.3-5.9c2.3-1.4 4.2-4.6 4.2-7.3l-0.1-18.4m-4.4-57.5l-42.9 24.8c-2.3 1.4-4.3 4.7-4.2 7.4l0.2 73.5c0 2.7 1.9 3.8 4.3 2.4l31.2-18v-1.6l-31.2 18c-1.6 0.9-2.8 0.2-2.9-1.6l-0.2-73.5c0-1.8 1.3-4 2.8-4.9l42.9-24.8c1.6-0.9 2.8-0.2 2.8 1.6l0.2 53.4 1.4-0.8-0.2-53.4c0-2.8-1.9-3.8-4.2-2.5"/>
								<path class="st8" d="m456.5 360.9l10.1-5.8c1.6-0.9 2.8-0.2 2.8 1.6l0.1 35.1c0 1.8-1.3 4-2.8 4.9l-21.8 12.6c-1.6 0.9-2.8 0.2-2.8-1.6v-15-1.6l-0.1-18.4c0-1.8 1.3-4 2.8-4.9l10.3-5.9 1.4-1m10.1-7.5l-10.1 5.8-1.4 0.8-10.3 5.9c-2.3 1.4-4.2 4.6-4.2 7.3l0.1 18.4v1.6 15c0 2.7 1.9 3.8 4.3 2.4l21.8-12.6c2.3-1.4 4.2-4.6 4.2-7.3l-0.1-35.1c-0.1-2.4-2-3.5-4.3-2.2"/>
								<path class="st55" d="m444 318.6l-29.5 17c-0.4 0.2-0.7 0.8-0.7 1.2v1.8c0 0.4 0.3 0.6 0.7 0.4l29.5-17c0.4-0.2 0.7-0.8 0.7-1.2v-1.8c0-0.5-0.3-0.7-0.7-0.4"/>
								<path class="st56" d="m444 327.7l-29.5 17c-0.4 0.2-0.7 0.8-0.7 1.2v1.8c0 0.4 0.3 0.6 0.7 0.4l29.5-17c0.4-0.2 0.7-0.8 0.7-1.2v-1.8c0.1-0.4-0.3-0.6-0.7-0.4"/>
								<path class="st6" d="m428.6 345.8l-14.1 8.1c-0.4 0.2-0.7 0.8-0.7 1.2v1.8c0 0.4 0.3 0.6 0.7 0.4l14.1-8.1c0.4-0.2 0.7-0.8 0.7-1.2v-1.8c0-0.4-0.3-0.6-0.7-0.4"/>
								<path class="st50" d="m428.7 382.5l-14.1 8.1c-0.4 0.2-0.7 0.8-0.7 1.2v1.8c0 0.4 0.3 0.6 0.7 0.4l14.1-8.1c0.4-0.2 0.7-0.8 0.7-1.2v-1.8c0-0.4-0.3-0.6-0.7-0.4"/>
								<path class="st6" d="m436.4 352.4l-21.8 12.6c-0.4 0.2-0.7 0.8-0.7 1.2v1.8c0 0.4 0.3 0.6 0.7 0.4l21.8-12.6c0.4-0.2 0.7-0.8 0.7-1.2v-1.8c0-0.4-0.3-0.6-0.7-0.4"/>
				</g>
			</g>
			<g class="st1">
				<defs>
					<polygon id="f" class="st1" points="578 384.4 578.3 281.3 657.9 327.3 657.6 430.4"/>
				</defs>
				<clipPath id="e">
					<use xlink:href="#f"/>
				</clipPath>
				<g class="st58">
								<path class="st54" d="m641.1 353.6l-2.7-1.5c-0.3 1.7-0.7 3.3-1.1 4.6-1 3-2.3 5-3.9 5.7-1.1 0.5-2.3 0.4-3.6-0.4-1.6-0.9-3.3-2.8-5.2-5.6-0.5-0.8-1-1.3-1.4-1.5-0.3-0.2-0.6-0.2-0.9-0.1s-0.6 0.4-0.9 0.8c-0.6 0.8-1.1 2.2-1.6 3.8-0.9 3.3-1.7 7.9-2.5 11.9-0.5 2.7-1.1 5-1.8 6.6-0.4 0.9-0.8 1.6-1.4 1.8-0.3 0.1-0.6 0.2-1 0.1-0.2-0.1-0.3-0.1-0.5-0.2-0.4-0.3-0.9-0.7-1.2-1.2-0.4-0.5-0.7-1.1-1-1.8-0.6-1.3-1-2.9-1.5-4.7-0.9-3.5-1.6-7.7-2.7-11.3-0.7-2.4-1.5-4.6-2.6-6.1-0.6-0.9-1.2-1.5-2-1.9-0.1-0.1-0.3-0.2-0.4-0.2-0.7-0.3-1.4-0.3-2 0s-1.2 0.9-1.7 1.7c-1.1 1.6-1.9 4.1-2.6 6.9-1.3 5.5-2 12-2.2 14.7-0.1 0.7-0.1 1.2-0.1 1.2 0 0.2-0.2 0.3-0.4 0.2s-0.3-0.4-0.3-0.6c0 0 0.7-12 3.2-19.4 0.9-2.5 1.9-4.4 3.3-5.3 0.8-0.5 1.7-0.6 2.7-0.1 0.2 0.1 0.3 0.2 0.5 0.3 1.2 0.7 2.2 1.9 3 3.3 0.8 1.5 1.5 3.2 2 5 1.1 3.7 1.9 7.9 2.7 11.4 0.6 2.3 1.2 4.4 1.9 5.7 0.4 0.7 0.8 1.2 1.2 1.5 0.1 0.1 0.2 0.1 0.3 0.1 0.3 0.1 0.5 0 0.8-0.2s0.6-0.5 0.8-1c0.5-1 1-2.5 1.4-4.2 0.9-3.5 1.6-8.2 2.5-12 0.6-2.6 1.2-4.8 2-6.2 0.5-0.8 1-1.3 1.6-1.4 0.3-0.1 0.7 0 1.1 0.2 0.6 0.3 1.2 1 1.8 1.9 1.7 2.7 3.3 4.3 4.7 5.1 1.1 0.7 2.2 0.8 3.2 0.3 1-0.4 1.8-1.4 2.6-2.9 0.9-1.7 1.6-4.1 2.1-7l-48.3-27.9-0.2 52.9 51.7 29.8 0.6-52.8m5.2 56.4c-0.4-0.2-0.7-0.8-0.7-1.2l0.1-42.6c0-0.4 0.3-0.6 0.7-0.4l2.3 1.3c0.4 0.2 0.7 0.8 0.7 1.2l-0.1 42.6c0 0.4-0.3 0.6-0.7 0.4l-2.3-1.3m-8.5-59.2c0.3-2 0.6-4.3 0.8-6.8 0-0.2 0.2-0.3 0.4-0.2s0.3 0.4 0.3 0.6c-0.2 2.5-0.4 4.8-0.8 6.8l3.3 1.9-0.2 54.6-53.1-30.7 0.2-54.6 49.1 28.4m-48-34.3c-0.4-0.2-0.7-0.8-0.7-1.2v-2.7c0-0.5 0.3-0.6 0.7-0.4l17.8 10.3c0.4 0.2 0.7 0.8 0.7 1.2v2.7c0 0.4-0.3 0.6-0.7 0.4l-17.8-10.3m0-11.4c-0.4-0.2-0.7-0.8-0.7-1.2v-2.7c0-0.4 0.3-0.6 0.7-0.4l37.1 21.4c0.4 0.2 0.7 0.8 0.7 1.2v2.7c0 0.4-0.3 0.6-0.7 0.4l-37.1-21.4m63.8 21.3l-71.1-41.1c-1.6-0.9-2.8-0.2-2.9 1.6l-0.3 93.4c0 1.8 1.3 4 2.8 4.9l71.1 41.1c1.6 0.9 2.8 0.2 2.8-1.6l0.3-93.4c0.2-1.8-1.1-4-2.7-4.9"/>
								<path class="st8" d="m582.3 385.3c-1.6-0.9-2.8-3.1-2.8-4.9l0.3-93.4c0-1.8 1.3-2.5 2.9-1.6l71.1 41.1c1.6 0.9 2.8 3.1 2.8 4.9l-0.3 93.4c0 1.8-1.3 2.5-2.8 1.6l-71.2-41.1m71.4-60.5l-71.1-41.1c-2.3-1.4-4.3-0.3-4.3 2.4l-0.3 93.4c0 2.7 1.9 6 4.2 7.4l71.1 41.1c2.3 1.4 4.3 0.3 4.3-2.4l0.3-93.4c0-2.7-1.9-6-4.2-7.4"/>
								<path class="st55" d="m626.9 322.2l-37.1-21.4c-0.4-0.2-0.7 0-0.7 0.4v2.7c0 0.4 0.3 1 0.7 1.2l37.1 21.4c0.4 0.2 0.7 0 0.7-0.4v-2.7c0-0.4-0.3-0.9-0.7-1.2"/>
								<path class="st6" d="m648.8 367.1l-2.3-1.3c-0.4-0.2-0.7 0-0.7 0.4l-0.1 42.6c0 0.4 0.3 1 0.7 1.2l2.3 1.3c0.4 0.2 0.7 0 0.7-0.4l0.1-42.6c0-0.4-0.4-1-0.7-1.2"/>
								<path class="st56" d="m607.6 322.5l-17.8-10.3c-0.4-0.2-0.7 0-0.7 0.4v2.7c0 0.4 0.3 1 0.7 1.2l17.8 10.3c0.4 0.2 0.7 0 0.7-0.4v-2.7c0-0.4-0.3-0.9-0.7-1.2"/>
								<path class="st8" d="m641.8 353.2l-3.3-1.9c0 0.3-0.1 0.5-0.1 0.7l2.7 1.5-0.2 52.9-51.7-29.8 0.2-52.9 48.3 27.9c0-0.2 0.1-0.5 0.1-0.7l-49.1-28.4-0.2 54.6 53.1 30.7 0.2-54.6"/>
								<path class="st56" d="m638.9 343.8c-0.2-0.1-0.3 0-0.4 0.2-0.2 2.5-0.4 4.8-0.8 6.8 0 0.3-0.1 0.5-0.1 0.7-0.5 3-1.2 5.3-2.1 7-0.8 1.5-1.6 2.5-2.6 2.9s-2 0.3-3.2-0.3c-1.4-0.8-3-2.5-4.7-5.1-0.6-0.9-1.2-1.6-1.8-1.9-0.4-0.2-0.8-0.3-1.1-0.2-0.6 0.1-1.1 0.6-1.6 1.4-0.8 1.4-1.4 3.7-2 6.2-0.9 3.9-1.6 8.5-2.5 12-0.4 1.8-0.9 3.2-1.4 4.2-0.3 0.5-0.5 0.8-0.8 1s-0.5 0.2-0.8 0.2c-0.1 0-0.2-0.1-0.3-0.1-0.4-0.3-0.8-0.7-1.2-1.5-0.7-1.3-1.3-3.3-1.9-5.7-0.9-3.5-1.6-7.7-2.7-11.4-0.6-1.8-1.2-3.6-2-5s-1.8-2.7-3-3.3c-0.2-0.1-0.3-0.2-0.5-0.3-1-0.4-1.9-0.3-2.7 0.1-1.4 0.8-2.4 2.8-3.3 5.3-2.6 7.4-3.2 19.4-3.2 19.4 0 0.2 0.1 0.5 0.3 0.6s0.4 0 0.4-0.2c0 0 0-0.4 0.1-1.2 0.2-2.6 0.8-9.2 2.2-14.7 0.7-2.8 1.5-5.2 2.6-6.9 0.5-0.8 1.1-1.4 1.7-1.7s1.3-0.3 2 0c0.1 0.1 0.3 0.1 0.4 0.2 0.7 0.4 1.4 1.1 2 1.9 1 1.5 1.9 3.7 2.6 6.1 1.1 3.6 1.8 7.8 2.7 11.3 0.4 1.8 0.9 3.4 1.5 4.7 0.3 0.7 0.6 1.2 1 1.8 0.4 0.5 0.8 0.9 1.2 1.2 0.2 0.1 0.3 0.2 0.5 0.2 0.4 0.1 0.7 0.1 1-0.1 0.6-0.3 1-0.9 1.4-1.8 0.7-1.6 1.3-4 1.8-6.6 0.8-4 1.6-8.6 2.5-11.9 0.5-1.7 1-3 1.6-3.8 0.3-0.4 0.6-0.7 0.9-0.8s0.6-0.1 0.9 0.1c0.4 0.2 0.8 0.7 1.4 1.5 1.8 2.8 3.5 4.7 5.2 5.6 1.3 0.8 2.6 0.9 3.6 0.4 1.6-0.7 2.9-2.7 3.9-5.7 0.4-1.3 0.8-2.9 1.1-4.6 0-0.2 0.1-0.5 0.1-0.7 0.3-2 0.6-4.3 0.8-6.8-0.3-0.2-0.5-0.5-0.7-0.7"/>
				</g>
			</g>
			<g class="st1">
				<defs>
					<polygon id="d" class="st1" points="757.4 427.8 757.6 358 854.1 413.7 853.9 483.5"/>
				</defs>
				<clipPath id="b">
					<use xlink:href="#d"/>
				</clipPath>
				<g class="st59">
								<path class="st54" d="m781.3 426.4c-0.4-0.2-0.7-0.8-0.7-1.2l0.1-20.2c0-0.5 0.3-0.6 0.7-0.4l2 1.1c0.4 0.2 0.7 0.8 0.7 1.2l-0.1 20.2c0 0.5-0.3 0.6-0.7 0.4l-2-1.1m-7.5-4.4c-0.4-0.2-0.7-0.8-0.7-1.2l0.1-35.6c0-0.5 0.3-0.6 0.7-0.4l2 1.1c0.4 0.2 0.7 0.8 0.7 1.2l-0.1 35.6c0 0.5-0.3 0.6-0.7 0.4l-2-1.1m16.4-33.5l-22.5-13-0.1 47.8 22.5 13 0.1-47.8m15.4 46.1c-0.4-0.2-0.7-0.8-0.7-1.2v-2.3c0-0.4 0.3-0.6 0.7-0.4l4.4 2.5c0.4 0.2 0.7 0.8 0.7 1.2v2.3c0 0.4-0.3 0.6-0.7 0.4l-4.4-2.5m-4.5-11.4c-0.4-0.2-0.7-0.8-0.7-1.2v-2.3c0-0.4 0.3-0.6 0.7-0.4l9 5.2c0.4 0.2 0.7 0.8 0.7 1.2v2.3c0 0.4-0.3 0.6-0.7 0.4l-9-5.2m23.8 29.1c-5.4-5.7-8.8-13.8-8.8-20.5 0-3.9 1.2-6.9 3.3-8.7l3.8 5.8c-1.4 1.1-2.2 3.2-2.2 5.7 0 4.4 2.3 9.7 5.8 13.5 1.2 1.2 2.4 2.3 3.7 3 2.3 1.3 4.5 1.6 6.2 1l3.2 6.2c-2.6 1.1-6 0.5-9.4-1.4-1.9-1.2-3.8-2.7-5.6-4.6m-28-40.3c-0.4-0.2-0.7-0.8-0.7-1.2v-2.3c0-0.5 0.3-0.6 0.7-0.4l13.2 7.6c0.4 0.2 0.7 0.8 0.7 1.2v2.3c0 0.5-0.3 0.6-0.7 0.4l-13.2-7.6m26.3 17l-3.8-5.8c2.8-2.3 6.9-2.1 11.2 0.4 8 4.6 14.5 15.8 14.4 25 0 4.9-1.9 8.4-5.1 9.7l-3.2-6.2c2.1-0.9 3.4-3.2 3.4-6.4 0-6-4.2-13.4-9.5-16.4-2.9-1.7-5.6-1.8-7.4-0.3m-9.9-22.7c-0.4-0.2-0.7-0.8-0.7-1.2v-2.3c0-0.5 0.3-0.6 0.7-0.4l31 17.9c0.4 0.2 0.7 0.8 0.7 1.2v2.3c0 0.5-0.3 0.6-0.7 0.4l-31-17.9m-46.4 17.5l0.1-49.5 23.9 13.8-0.1 49.5-23.9-13.8m83-10.9l-88-50.8c-1.6-0.9-2.8-0.2-2.8 1.6l-0.2 59.9c0 1.8 1.3 4 2.8 4.9l88 50.8c1.6 0.9 2.8 0.2 2.8-1.6l0.2-59.9c0-1.8-1.3-4-2.8-4.9"/>
								<path class="st8" d="m761.7 428.6c-1.6-0.9-2.8-3.1-2.8-4.9l0.2-59.9c0-1.8 1.3-2.5 2.8-1.6l88 50.8c1.6 0.9 2.8 3.1 2.8 4.9l-0.2 59.9c0 1.8-1.3 2.5-2.8 1.6l-88-50.8m88.2-17.3l-88-50.8c-2.3-1.4-4.3-0.3-4.3 2.4l-0.2 59.9c0 2.7 1.9 6 4.2 7.3l88 50.8c2.3 1.4 4.3 0.3 4.3-2.4l0.2-59.9c0-2.7-1.9-6-4.2-7.3"/>
								<path class="st6" d="m775.9 385.9l-2-1.1c-0.4-0.2-0.7 0-0.7 0.4l-0.1 35.6c0 0.5 0.3 1 0.7 1.2l2 1.1c0.4 0.2 0.7 0 0.7-0.4l0.1-35.6c0-0.4-0.3-0.9-0.7-1.2"/>
								<path class="st6" d="m844.3 420.3l-31-17.9c-0.4-0.2-0.7 0-0.7 0.4v2.3c0 0.5 0.3 1 0.7 1.2l31 17.9c0.4 0.2 0.7 0 0.7-0.4v-2.3c0-0.5-0.3-1-0.7-1.2"/>
								<path class="st6" d="m783.4 405.7l-2-1.1c-0.4-0.2-0.7 0-0.7 0.4l-0.1 20.2c0 0.5 0.3 1 0.7 1.2l2 1.1c0.4 0.2 0.7 0 0.7-0.4l0.1-20.2c0-0.4-0.4-1-0.7-1.2"/>
								<path class="st50" d="m819.4 423.2c-2.1 1.7-3.3 4.8-3.3 8.7 0 6.7 3.4 14.8 8.8 20.5l1.9-4.1c-3.5-3.8-5.8-9-5.8-13.5 0-2.5 0.8-4.6 2.2-5.7l-3.8-5.9"/>
								<path class="st56" d="m836.7 452.1c-1.7 0.7-3.9 0.4-6.2-1-1.3-0.7-2.5-1.8-3.7-3l-1.9 4.1c1.8 1.9 3.7 3.4 5.6 4.5 3.4 2 6.8 2.5 9.4 1.4l-3.2-6"/>
								<path class="st55" d="m830.6 423.6c-4.3-2.5-8.4-2.7-11.2-0.4l3.8 5.8c1.8-1.5 4.5-1.4 7.4 0.3 5.3 3 9.5 10.4 9.5 16.4 0 3.2-1.2 5.5-3.4 6.4l3.2 6.2c3.2-1.3 5.1-4.9 5.1-9.7 0.1-9.2-6.4-20.4-14.4-25"/>
								<path class="st8" d="m767.6 423.4l0.1-47.8 22.5 13-0.1 47.8-22.5-13m23.4-35.3l-24-13.8-0.1 49.5 23.9 13.8 0.2-49.5"/>
								<path class="st56" d="m810.1 415.7l-13.2-7.6c-0.4-0.2-0.7 0-0.7 0.4v2.3c0 0.5 0.3 1 0.7 1.2l13.2 7.6c0.4 0.2 0.7 0 0.7-0.4v-2.3c0-0.4-0.3-1-0.7-1.2"/>
								<path class="st56" d="m810.1 424.5l-9-5.2c-0.4-0.2-0.7 0-0.7 0.4v2.3c0 0.4 0.3 1 0.7 1.2l9 5.2c0.4 0.2 0.7 0 0.7-0.4v-2.3c0-0.5-0.3-1-0.7-1.2"/>
								<path class="st56" d="m810 433.3l-4.4-2.5c-0.4-0.2-0.7 0-0.7 0.4v2.3c0 0.4 0.3 1 0.7 1.2l4.4 2.5c0.4 0.2 0.7 0 0.7-0.4v-2.3c0.1-0.5-0.3-1-0.7-1.2"/>
				</g>
			</g>
		<path class="st60" d="m552.7 371.4c3.7 0.1 7.5-9.6 8.4-13.9s1.9-6.1 0-6.8-4-1.2-6.1 3.3c-2.1 4.6-7.7 8.6-7.8 11.4-0.1 2.7 0.7 5.9 5.5 6z"/>
		<path class="st60" d="m557.1 366c0 2.9-2.4 5.3-5.3 5.3-1.3 0-2.5-0.5-3.4-1.3 0 0-0.1 0-0.1-0.1l-0.2-0.2c-1-0.9-3.9-3.5-7.5-10.9-1.7-3.6-4.6-7.9-4.6-11.7v-0.1-0.3c0.2-3.4 1.6-6.4 5.1-6.4 2.4 0 4.7 1.8 5.8 3.7 0 0.1 0.3 0.6 0.6 1.4 1.9 4.3 8.5 16.7 8.9 18 0.4 0.9 0.7 1.7 0.7 2.6z"/>
	<path class="st61" d="m554.6 345.5c3.9 0.8 5.8 2.2 6.7 3.2s1.6 1.8 0.7 3.1c-0.9 1.2-0.9 2.3-2.8 2.4-1.8 0.1-3.5-0.5-5.1-1.5s0.1-3-0.7-4.1c-1.7-2.4 1.2-3.1 1.2-3.1z"/>
		<path class="st62" d="m535 380.1c3.6-2.7 11.3-3.9 13.2 1.5 1.9 5.3 1.6 27.1 1.3 32.6s-0.6 22.9-1 26.2c-0.4 3.2-4.9 5.1-9.1 4.5-2.7-0.4-1.4-5.1-1.7-16.7-0.2-7.7-0.8-13.2-0.8-13.2s-1.2-14.7-3.3-21.5c-1.6-4.8-2.1-10.9 1.4-13.4z"/>
		<path class="st60" d="m523.6 380.3c3.8-2.5 16-2.7 17.4 3 1.5 5.7-3.5 29.5-5.1 37.1-1.2 5.6-1.6 24.5-3.5 31.3-0.9 3.3-5.6 5.7-8.8 2.9s-3-7.8-2.4-19.5c0.4-8 1.1-17.2 1.1-17.2s-0.4-13.2-1.6-20.5c-1.5-8.7-0.8-14.7 2.9-17.1z"/>
		<path class="st63" d="m520.1 380.1v6.3s2.4 2 7.7 2.7c4.6 0.6 9.9 0 13.9-0.9 4.2-1 7.2-3.4 7.2-3.4v-6.8s-6.3 1.5-14.6 1.7-14.2 0.4-14.2 0.4z"/>
	<path class="st55" d="m543.1 384.2c-2.8 1-6.4 1.9-10.3 1.8-7.4-0.2-11.9-1.4-12.5-4.1-0.2-1-0.2-2.4-0.2-3.9 0-1.1 0.1-2.4 0.1-3.8v-3.6c0-0.6-0.1-1.2-0.1-1.8-0.1-0.8-0.2-1.5-0.3-2.1-1-4.2-3.7-7.5-3.5-14.7 0.2-8.7 3-8.5 10.9-12.9 0.8-0.4 1.6-0.7 2.6-0.8 2.9 2.6 7.7 7.1 8.8 9.9 0.2 0.5 0.4 1.2 0.7 2 0.1 0.3 0.2 0.5 0.2 0.8v0.1l0.2 0.6c0.5 1.9 1 4.2 1.4 6.5 0 0.2 0.1 0.5 0.1 0.7s0.1 0.5 0.1 0.7 0.1 0.5 0.1 0.7c0.1 0.8 0.3 1.5 0.4 2.3 0.1 0.3 0.1 0.7 0.2 1 0.2 1.3 0.3 2.5 0.4 3.5v0.4 0.6 0.7 0.6c0 0.5 0.1 1.1 0.1 1.8v0.7 0.8c0 0.6 0.1 1.2 0.1 1.9 0 0.6 0.1 1.3 0.1 2s0.1 1.3 0.1 2v0.3c0 0.7 0 1.4 0.1 2 0.1 1.1 0.1 2.3 0.2 3.3z"/>
	<path class="st64" d="m548.6 381.4c-1 0.7-3 1.8-5.5 2.8-0.1-1.7-0.1-3.7-0.2-5.8-0.1-1.3-0.1-2.7-0.2-4 0-1.2-0.1-2.3-0.1-3.4-0.1-1.5-0.1-2.8-0.2-3.6v-0.4c-0.5-5.1-2.2-14.8-3.8-18.8-1.1-2.8-5.9-7.3-8.8-9.9 3.8-0.6 8.8 0.7 11.3 1.6 3.1 1.1 7.8 9.5 7.7 18.2 0 2.1 0.1 4.4 0.1 6.6 0 1.3 0.1 2.6 0.2 3.9 0.1 1.2 0.1 2.3 0.2 3.4 0.1 1.4 0.1 2.8 0.1 3.9 0 3-0.2 5.1-0.8 5.5z"/>
	<path class="st51" d="m549.4 376c-0.6 0.4-1.3 0.7-2 1-1.7 0.6-3.1 1-4.4 1.4-4.5 1.3-7.4 1.7-11.9 1.9-4.2 0.2-8.7-1.4-10.9-2.4 0-1.1 0.1-2.4 0.1-3.8 2.5 0.7 7.8 2 10.8 1.9 3.7-0.2 8.3-0.9 11.8-1.7 1.7-0.4 3.2-0.8 4.1-1.2s1.7-0.8 2.4-1.1c-0.1 1.5 0 2.8 0 4z"/>
	<path class="st51" d="m549.1 368.6c-0.6 0.3-1.2 0.6-1.9 0.9-1.7 0.6-3.2 1.1-4.6 1.5-4.4 1.3-7.3 1.7-11.8 1.9-4.1 0.2-8.4-1.3-10.6-2.2 0-0.6-0.1-1.2-0.1-1.8-0.1-0.8-0.2-1.5-0.3-2.1 2.4 0.7 7.9 2.1 11.1 1.9 3.6-0.2 8.1-0.9 11.6-1.7 1.8-0.4 3.4-0.8 4.4-1.2 0.8-0.3 1.5-0.7 2.2-1-0.2 1.2-0.1 2.5 0 3.8z"/>
		<path class="st55" d="m526.4 351.3c-0.4-0.8-0.6-1.4-0.6-1.5l0.6 1.5z"/>
		<path class="st60" d="m534.7 371.9c0 2.9-2.4 5.3-5.3 5.3-1.3 0-2.5-0.5-3.4-1.3 0 0-0.1 0-0.1-0.1l-0.2-0.2c-1-0.9-2.8-4.3-6.7-11.5-2.3-4.4-3.8-7.9-3.8-11.6v-0.1-0.3c0.2-3.4 1.5-6.6 4.9-6.6 2.4 0 4.3 2.3 5.4 4.2 0 0.1 0.3 0.6 0.6 1.4 1.9 4.3 7.5 17 7.9 18.2 0.4 0.9 0.7 1.7 0.7 2.6z"/>
		<path class="st55" d="m539.1 356l-0.6 0.6c0.4-0.3 0.6-0.5 0.6-0.6z"/>
		<path class="st60" d="m546.5 359.4c0 1.3-0.5 2.5-1.4 3.4 0 0-3.8 4.1-6.2 7.3-2 2.7-4.2 5.8-7 6.4-0.7 0.4-1.6 0.6-2.4 0.6-2.9 0-5.3-2.4-5.3-5.3 0-1.4 0.5-2.7 1.4-3.6 1.1-1.7 5.9-5.1 6.9-6.1 0.8-0.8 4.2-4.3 5.6-5.8 0.3-0.3 0.5-0.6 0.6-0.6 0.8-0.7 1.9-1.1 3.1-1.1 2.6 0.1 4.7 2.2 4.7 4.8z"/>
		<path class="st60" d="m528.4 336.8c-0.8 0.1-2.6 2.5-2.6 3.3 0 2.2 3.8 7.8 3.8 7.8l5.6-4.4 6.6 1.5s-2.5-3.6-3.5-5c-1.6-2.2-4.2-4.1-9.9-3.2z"/>
		<path class="st63" d="m546.5 345.2l-1.3 19.3c-0.1 0.8 0.8 1.3 1.5 0.9l9.8-5.8c0.3-0.2 0.4-0.4 0.5-0.7l2.1-18.2c0.1-0.8-0.7-1.3-1.4-1l-10.6 4.7c-0.4 0.1-0.6 0.4-0.6 0.8z"/>
	<path class="st61" d="m542.8 353.1c-1.1 0.7-2.2 2.1-1.8 4s1.2 4.1 2.5 4.8 4.5-1.2 5.3-2.1 1.2-7.4 0.9-8.9c-0.3-1.3-6.5 2-6.9 2.2z"/>
	<path class="st65" d="m529.2 336.7l0.7-8.4s1.3-2.1 4.7-2.1c3.5 0 5.8 1.3 6.3 3.2 0.5 2-1.8 9.7-2.8 11.2s-1.5 2.4-2.7 2.5c-1.3 0.1-3 0.2-4.7-1.7-1.6-1.7-1.7-3.5-1.5-4.7z"/>
	<path class="st61" d="m530.7 320.3c-2.1 2.3-2.2 6.2-1.9 8.4 0.4 2.3 1.8 7.8 3.5 9.1 1.8 1.4 3.8 3.8 6.2 3.9s3.8-2.6 4.8-5.5 3.2-9.4 2.1-12.5c-1.1-3.2-3.1-6.2-7.3-6.5s-7.4 3.1-7.4 3.1z"/>
		<path class="st63" d="m530.5 330.7c-0.1-4.2 3.2 4.5 4.6-3.9 0.3-1.9-1.5-5.9-4.6-5.9-1.9 0-3.5 1.5-3 5.4s1 8.1 2.4 8.4c0.3 0 0.6-1.2 0.6-4z"/>
	<path class="st61" d="m531.9 329.2c-0.2-0.1 0.1-2.9-1.6-2.8s-1.3 2.8-1.2 3.2 0.6 3.1 1.5 2.8c1-0.3 1.3-3.2 1.3-3.2z"/>
			<path class="st6" d="m530.5 318.4s-2.1 0.7-3.4 2.1c-0.7 0.7-1.4 2.9-0.5 3.3s0.5 0 1.5 0.7 5.6 4.5 7 5.5 3.7 2.3 5.3 2.4c1.6 0 3.8-0.1 5.9-1.5 2.1-1.3 2.8-2.4 2.4-4.1-0.4-1.6-1.7-3.4-4.1-5.2-2.4-1.9-8.7-4.3-14.1-3.2z"/>
			<path class="st50" d="m536.3 313.4c-2-0.1-4.8 0.9-6.4 3.2s-2.7 3.7-2.5 5.3 3.6 4.7 5.5 5.8 6.1 2.4 9.1 1.7 4.3-1.7 4.7-2.7 0.6-3.9-0.4-6.4c-1.1-2.5-3.8-6.7-10-6.9z"/>
			<path class="st6" d="m531.8 314.8s0.2-0.7 2-1.5c1.3-0.6 3-0.5 3.7-0.3s4.5 1.2 6.5 4.2c2.2 3.6 2.8 6.5 2.6 8.3-0.1 1.7-1.6 2.6-2.7 2.8-1.1 0.1-2.5-0.6-2.7-2.4s-0.8-6.3-3.8-8.5c-3-2.3-5.6-2.6-5.6-2.6z"/>
		<path class="st6" d="m534.6 323.7c0.7-2.8 2.2-3.3 2.9-2.8s2.1 4 1.9 5.4-2.7 0.8-3.7 0.4c-0.9-0.5-1.4-1.6-1.1-3z"/>
		<path class="st63" d="m522.1 451.5s2.5-2.6 4.8-3.2c2.4-0.6 3.7-0.5 4.9 0.7s4.4 6.7 6.1 8.1c1.6 1.3 1.5 3.3 1.1 3.7s-1.8 2.9-6.1 2.3c-4.3-0.5-5.7-5.1-7.9-5.9s-2.4-1.6-2.9-3c-0.4-1.3 0-2.7 0-2.7z"/>
		<path class="st63" d="m539 443.3s0.9 0.5 4.5-2.4c1.7-1.4 4.2-1.2 5.3-0.1s3.3 3.8 6.3 5.3c1.7 0.9 1.8 2.8 1.5 3.5s-1.6 2.4-5.5 2c-3.9-0.5-6.9-3-9.3-3.6-2-0.5-2.4-1-2.9-2.1-0.4-1.3 0.1-2.6 0.1-2.6z"/>
		<ellipse class="st66" transform="matrix(.2204 -.9754 .9754 .2204 87.192 814.12)" cx="552.9" cy="352.5" rx="2.7" ry="1.2"/>
		<path class="st67" d="m593.9 604.6s5.9-1.1 7.2 2.4c1.2 3.5-2.4 7.4-4.5 9.5s-3.1 5.5-2.1 8.6 4.9 7.5 4.1 10.7-5.4 6.2-5.4 6.2"/>
		<path class="st68" d="m590.6 602.6s8-1.1 12.1 2 5.1 6.5 4.5 10.2-7.8 19.8-17.4 25.1"/>
				<ellipse class="st69" transform="matrix(.9156 -.4021 .4021 .9156 -192.81 284.73)" cx="581.8" cy="601.6" rx="4.3" ry="6.8"/>
			<polygon class="st69" points="560.2 606 579 595.4 584.5 607.8 565.7 618.5"/>
			<ellipse class="st70" cx="582.5" cy="604.6" rx="3" ry="3.6"/>
				<ellipse class="st71" transform="matrix(.2642 -.9645 .9645 .2642 -199.03 1011.8)" cx="563.6" cy="636.3" rx="6" ry="3.5"/>
				<ellipse class="st71" transform="matrix(.2642 -.9645 .9645 .2642 -199.03 1011.8)" cx="563.6" cy="636.3" rx="3.2" ry="1.9"/>
				<ellipse class="st71" transform="matrix(.2642 -.9645 .9645 .2642 -199.56 1008.6)" cx="561.2" cy="635.1" rx="6" ry="3.5"/>
			<polygon class="st71" points="563.1 629.4 565.6 630.7 562 642.2 559.6 640.9"/>
			<polygon class="st60" points="537 668.8 577.5 647.2 620.7 670.1 578.8 693.4"/>
			<polygon class="st62" points="537 673.3 578.8 697.9 578.8 693.4 537 668.8"/>
			<polygon class="st69" points="620.7 674.6 578.8 697.9 578.8 693.4 620.7 670.1"/>
		<ellipse class="st72" cx="578.8" cy="689.7" rx="2.2" ry="1.2"/>
		<ellipse class="st72" cx="543.4" cy="668.8" rx="2.2" ry="1.2"/>
		<ellipse class="st72" cx="614.5" cy="670" rx="2.2" ry="1.2"/>
				<ellipse class="st62" cx="579" cy="668.4" rx="24.6" ry="12.8"/>
				<rect class="st62" x="554.3" y="663" width="49.3" height="5.5"/>
				<ellipse class="st73" cx="579" cy="663" rx="24.6" ry="12.8"/>
				<ellipse class="st62" cx="579" cy="661.9" rx="21.5" ry="11.1"/>
				<rect class="st62" x="557.5" y="657.3" width="42.9" height="4.6"/>
				<ellipse class="st73" cx="579" cy="657.3" rx="21.5" ry="11.1"/>
		<polygon class="st71" points="560.6 657 577.5 666.1 577.5 653.6 560.6 644.5"/>
		<polygon class="st8" points="597.3 654.4 577.5 666.1 577.5 653.6 597.3 641.9"/>
			<polygon class="st73" points="597.3 641.9 580.4 632.8 560.6 644.5 577.5 653.6"/>
			<path class="st60" d="m593.9 602.7l-2.8 8.5-22.3 36.5-5.7-2.7-0.3-0.2c-1.9-1-2.7-4.4-1.7-8.1 0.3-1.2 0.8-2.2 1.4-3.1l0.2-0.4 20-30.4 0.5-0.7 0.1-0.1c1.3-1.7 2.9-2.7 4.4-2.3 0.3 0.1 0.5 0.2 0.8 0.4l5.4 2.6z"/>
			<path class="st69" d="m596.1 611c-0.4 1.3-0.9 2.4-1.5 3.4l-0.1 0.1-20.2 30.7c-1.3 2.1-3.2 3.3-4.8 2.9-2.3-0.6-3.3-4.3-2.2-8.3 0.3-1.2 0.8-2.2 1.4-3.2l0.2-0.4 20-30.4 0.5-0.7 0.1-0.1c1.3-1.7 2.9-2.7 4.4-2.3 2.3 0.6 3.3 4.3 2.2 8.3z"/>
			<ellipse class="st72" transform="matrix(.2642 -.9645 .9645 .2642 -151.65 1019.9)" cx="592.6" cy="609.3" rx="3.2" ry="1.9"/>
				<ellipse class="st60" transform="matrix(.9156 -.4021 .4021 .9156 -198.7 278.09)" cx="563" cy="612.3" rx="4.3" ry="6.8"/>
				<ellipse class="st70" transform="matrix(.9156 -.4021 .4021 .9156 -198.75 278.1)" cx="563" cy="612.4" rx="2" ry="3.2"/>
		<ellipse class="st74" transform="matrix(.9879 -.155 .155 .9879 -94.51 96.744)" cx="573" cy="654.3" rx=".8" ry="1.1"/>
		<ellipse class="st74" transform="matrix(.9879 -.155 .155 .9879 -95.586 96.827)" cx="573" cy="661.2" rx=".8" ry="1.1"/>
		<ellipse class="st74" transform="matrix(.9879 -.155 .155 .9879 -93.905 95.299)" cx="564" cy="649.7" rx=".8" ry="1.1"/>
		<ellipse class="st74" transform="matrix(.9879 -.155 .155 .9879 -94.912 95.378)" cx="564" cy="656.2" rx=".8" ry="1.1"/>
		<polygon class="st74" points="592.6 649.4 583.5 654.9 583.5 652.9 592.6 647.5"/>
		<polygon class="st74" points="592.6 654.2 583.5 659.6 583.5 657.7 592.6 652.2"/>
				<rect class="st68" transform="matrix(.8398 .5429 -.5429 .8398 432.9 -215.25)" x="578.4" y="620.4" width="5.4" height="10.9"/>
				<rect class="st68" transform="matrix(.8398 .5429 -.5429 .8398 430.19 -218.4)" x="582.4" y="619" width="5.4" height="1.3"/>
				<rect class="st68" transform="matrix(.8398 .5429 -.5429 .8398 429.25 -219.49)" x="583.8" y="616.9" width="5.4" height="1.3"/>
				<ellipse class="st71" transform="matrix(.2642 -.9645 .9645 .2642 -196.74 1023.9)" cx="572.7" cy="640.9" rx="6" ry="3.5"/>
			<polygon class="st71" points="574.3 635.1 576.7 636.4 573.5 648 571.1 646.7"/>
				<ellipse class="st8" transform="matrix(.2642 -.9645 .9645 .2642 -196.21 1027.1)" cx="575.1" cy="642.2" rx="6" ry="3.5"/>
					<ellipse class="st70" transform="matrix(.2642 -.9645 .9645 .2642 -196.21 1027.1)" cx="575.1" cy="642.2" rx="3.2" ry="1.9"/>
			<polygon class="st70" points="561.7 609.5 555.4 613.1 557.9 619 564.3 615.3"/>
				<ellipse class="st71" transform="matrix(.2642 -.9645 .9645 .2642 -203.1 978.37)" cx="539.7" cy="622.3" rx="6.6" ry="3.9"/>
				<ellipse class="st71" transform="matrix(.2642 -.9645 .9645 .2642 -203.98 973.28)" cx="535.9" cy="620.3" rx="6.6" ry="3.9"/>
			<polygon class="st71" points="537.7 613.9 541.4 615.9 537.9 628.7 534.2 626.7"/>
				<ellipse class="st69" transform="matrix(.9156 -.4021 .4021 .9156 -200.97 275.53)" cx="555.8" cy="616.4" rx="4.3" ry="6.8"/>
				<polygon class="st8" points="545.7 649.8 544 650.9 544 641.3 545.7 640.2"/>
				<polygon class="st71" points="544 650.9 542.8 650.6 542.8 641 544 641.3"/>
				<polygon class="st8" points="541.7 648.8 540 649.9 540 640.3 541.7 639.2"/>
				<polygon class="st71" points="540 649.9 538.9 649.6 538.9 639.9 540 640.3"/>
				<ellipse class="st70" cx="542.2" cy="640.5" rx="4.4" ry="2.3"/>
				<rect class="st70" x="537.8" y="635.7" width="8.8" height="4.8"/>
				<ellipse class="st62" cx="542.2" cy="635.4" rx="5.5" ry="2.9"/>
				<rect class="st62" x="536.7" y="628.3" width="11.1" height="7.2"/>
			<ellipse class="st73" cx="542.2" cy="628.3" rx="5.5" ry="2.9"/>
			<polygon class="st69" points="539.8 617.9 553 610.2 558.5 622.7 545.3 630.4"/>
				<ellipse class="st60" transform="matrix(.9156 -.4021 .4021 .9156 -205.19 270.88)" cx="542.6" cy="624.1" rx="4.3" ry="6.8"/>
				<ellipse class="st71" transform="matrix(.2642 -.9645 .9645 .2642 -201.75 985.53)" cx="545.1" cy="625" rx="6.6" ry="3.9"/>
			<polygon class="st71" points="546.8 618.6 550.6 620.6 547.1 633.4 543.3 631.4"/>
				<ellipse class="st8" transform="matrix(.2642 -.9645 .9645 .2642 -200.87 990.62)" cx="548.8" cy="627" rx="6.6" ry="3.9"/>
					<ellipse class="st70" transform="matrix(.2642 -.9645 .9645 .2642 -200.87 990.62)" cx="548.8" cy="627" rx="3.6" ry="2.1"/>
				<polygon class="st62" points="763.1 607.4 655.8 545.4 655.8 538.9 763.1 600.9"/>
				<polygon class="st69" points="802.5 584 763.1 607.4 763.1 600.9 802.5 577.6"/>
				<polygon class="st60" points="802.5 577.6 695.3 515.6 655.8 538.9 763.1 600.9"/>
				<polygon class="st62" points="691.3 553.9 675.1 544.9 675.1 542.8 691.3 551.8"/>
				<polygon class="st69" points="707.9 544.2 691.3 553.9 691.3 551.8 707.9 542.1"/>
				<polygon class="st60" points="675.1 542.8 691.3 551.8 707.9 542.1 691.6 533.1"/>
			<polygon class="st62" points="685 548.3 675.1 542.8 675.1 532.7 685 538.2"/>
			<polygon class="st70" points="701.5 538.5 685 548.3 685 538.2 701.5 528.5"/>
		<ellipse class="st72" cx="691.5" cy="548" rx="2.4" ry="1.2"/>
		<ellipse class="st72" cx="763.1" cy="595.9" rx="2.4" ry="1.2"/>
		<ellipse class="st72" cx="662.2" cy="538.5" rx="2.4" ry="1.2"/>
		<ellipse class="st72" cx="795.5" cy="577.2" rx="2.4" ry="1.2"/>
		<ellipse class="st72" cx="701.5" cy="542.1" rx="2.4" ry="1.2"/>
			<path class="st60" d="m684.2 540.5s-1.1 0.8-6.2-1.7-7.8-4.9-7.8-4.9-3.3-3.9-2.7-11.2 3.7-12.3 5.6-15.5 4.4-6.1 5.6-8.7 0.4-8.4 0.4-8.4l16.6-1.4v41.8l-11.5 10z"/>
			<path class="st69" d="m688.6 539.6c-6.7 3.2-10.9-2-10.9-2s-3.3-3.9-2.7-11.2 3.7-12.3 5.6-15.5 4.4-6.1 5.6-8.7 0.4-8.4 0.4-8.4l10.9-3.1-0.3 9.5s9.1 1.7 9.1 12.7c0 4.5-1.1 15.8-6.3 20.1-2.5 1.9-6.3 4.1-11.4 6.6z"/>
			<ellipse class="st62" cx="688.2" cy="490.9" rx="11.4" ry="6.7"/>
			<rect class="st62" x="676.7" y="488.7" width="22.9" height="2.5"/>
			<ellipse class="st60" cx="688.2" cy="488.7" rx="11.4" ry="6.7"/>
			<ellipse class="st70" cx="688.2" cy="488.7" rx="8" ry="4.7"/>
				<ellipse class="st69" transform="matrix(.4351 -.9004 .9004 .4351 -76.528 917.22)" cx="692.7" cy="519.6" rx="17.2" ry="11.1"/>
			<ellipse class="st70" transform="matrix(.4351 -.9004 .9004 .4351 -76.662 918.74)" cx="693.9" cy="520.5" rx="17.2" ry="11.1"/>
			<ellipse class="st72" transform="matrix(.4351 -.9004 .9004 .4351 -76.652 919.85)" cx="694.7" cy="521" rx="13.9" ry="9.1"/>
				<ellipse class="st62" transform="matrix(.4351 -.9004 .9004 .4351 -76.514 920.07)" cx="695" cy="521" rx="11.8" ry="7.7"/>
		<path class="st71" d="m717 527.7l1 8.4-6 2.2-6.8 3.5-11.3-6.1v-9.4c0.1-1.5 0.5-3.2 1.3-4.8 2.2-4.6 6.4-7.1 9.4-5.7l0.3 0.2 11 6 1.1 5.7z"/>
		<ellipse class="st74" transform="matrix(.866 -.5 .5 .866 -172.17 420.58)" cx="698.7" cy="531.6" rx="2.1" ry="3.2"/>
		<path class="st75" d="m712.3 520s-0.8-0.2-2 0.1c-4.7 1.3-7.1 6.6-7.1 6.6l-5.6-2.8s2.3-5.9 6.8-6.9c1.3-0.3 2.4 0 2.4 0"/>
			<polygon class="st62" points="710.1 556.3 705.1 553.8 705.1 551.6 710.1 554.2"/>
			<polygon class="st69" points="722.9 548.9 710.1 556.3 710.1 554.2 722.9 546.8"/>
		<polygon class="st70" points="718 544.2 705.1 551.6 705.1 532.9 718 525.5"/>
			<polygon class="st60" points="722.9 546.8 718 544.2 705.1 551.6 710.1 554.2"/>
				<ellipse class="st69" transform="matrix(.4351 -.9004 .9004 .4351 -75.283 940.5)" cx="711.9" cy="530.2" rx="9.2" ry="6"/>
				<rect class="st69" transform="matrix(.434 -.9009 .9009 .434 -74.693 942.33)" x="703.5" y="529.8" width="18.4" height="1.7"/>
		<ellipse class="st8" transform="matrix(.4351 -.9004 .9004 .4351 -75.085 942.29)" cx="713.4" cy="531" rx="9.2" ry="6"/>
				<ellipse class="st62" transform="matrix(.4351 -.9004 .9004 .4351 -75.355 942.82)" cx="713.7" cy="531.5" rx="2.5" ry="1.6"/>
		<ellipse class="st74" transform="matrix(.4351 -.9004 .9004 .4351 -70.808 939.08)" cx="713" cy="526" rx="1.5" ry="1"/>
			<ellipse class="st74" transform="matrix(.4351 -.9004 .9004 .4351 -68.219 942.22)" cx="716.8" cy="525.5" rx="1.5" ry="1"/>
			<ellipse class="st74" transform="matrix(.4351 -.9004 .9004 .4351 -70.867 945.28)" cx="717.9" cy="529.1" rx="1.5" ry="1"/>
			<ellipse class="st74" transform="matrix(.4351 -.9004 .9004 .4351 -75.44 946.75)" cx="716.8" cy="533.5" rx="1.5" ry="1"/>
			<ellipse class="st74" transform="matrix(.4351 -.9004 .9004 .4351 -79.662 945.76)" cx="713.9" cy="536.4" rx="1.5" ry="1"/>
			<ellipse class="st74" transform="matrix(.4351 -.9004 .9004 .4351 -82.02 942.6)" cx="710.2" cy="536.7" rx="1.5" ry="1"/>
			<ellipse class="st74" transform="matrix(.4351 -.9004 .9004 .4351 -79.693 939.44)" cx="708.8" cy="533.2" rx="1.5" ry="1"/>
			<ellipse class="st74" transform="matrix(.4351 -.9004 .9004 .4351 -75.22 938.34)" cx="710.2" cy="529.1" rx="1.5" ry="1"/>
					<ellipse class="st70" transform="matrix(.4351 -.9004 .9004 .4351 -75.337 942.95)" cx="713.8" cy="531.5" rx="1.1" ry=".7"/>
				<polygon class="st70" points="714.3 530.5 720 533.7 718.9 535.5 713.3 532.5"/>
						<ellipse class="st62" transform="matrix(.4351 -.9004 .9004 .4351 -75.259 948.39)" cx="718.2" cy="534.2" rx="3" ry="1.9"/>
					<rect class="st62" transform="matrix(.4351 -.9004 .9004 .4351 -74.984 950.88)" x="717.3" y="532.8" width="6" height="4.7"/>
					<ellipse class="st8" transform="matrix(.4351 -.9004 .9004 .4351 -74.709 953.36)" cx="722.4" cy="536.2" rx="3" ry="1.9"/>
						<ellipse class="st70" transform="matrix(.4351 -.9004 .9004 .4351 -74.709 953.36)" cx="722.4" cy="536.2" rx="1.1" ry=".7"/>
					<polygon class="st70" points="722.9 535.2 728.6 538.4 727.5 540.2 721.9 537.2"/>
		<ellipse class="st72" cx="710.1" cy="551.5" rx="1.5" ry=".8"/>
		<ellipse class="st72" cx="718" cy="546.8" rx="1.5" ry=".8"/>
			<polygon class="st62" points="753.1 591.8 716.8 570.9 716.8 562 753.1 582.9"/>
			<polygon class="st69" points="767.5 576.6 753.1 584.2 753.1 582.9 767.5 575.3"/>
			<polygon class="st69" points="754.5 583.4 753.1 584.2 753.1 591.8 754.5 591"/>
			<polygon class="st60" points="716.8 562 736.1 551.5 776.1 570.7 753.1 582.9"/>
				<ellipse class="st69" transform="matrix(.4351 -.9004 .9004 .4351 -74.945 968.55)" cx="734.4" cy="544" rx="17.1" ry="11.1"/>
			<polygon class="st69" points="773.8 546 741.9 528.6 727 559.4 758.9 576.8"/>
		<path class="st75" d="m747.7 531.8c-5.5-2.7-13.3 2.1-17.5 10.6s-3 17.6 2.6 20.3"/>
			<polygon class="st62" points="761.3 582.5 751.4 577 751.4 552.7 761.3 558.2"/>
			<polygon class="st60" points="782.4 546 772.5 540.5 751.4 552.7 761.3 558.2"/>
			<polygon class="st69" points="782.4 546 782.4 570.2 761.3 582.5 761.3 558.2"/>
			<ellipse class="st70" transform="matrix(.4351 -.9004 .9004 .4351 -72.051 1014.6)" cx="772.5" cy="564.7" rx="14.1" ry="9.2"/>
			<rect class="st70" transform="matrix(.4351 -.9004 .9004 .4351 -71.77 1017.1)" x="760.6" y="563.3" width="28.2" height="4.8"/>
				<ellipse class="st69" transform="matrix(.4351 -.9004 .9004 .4351 -71.515 1019.4)" cx="776.7" cy="566.7" rx="14.1" ry="9.2"/>
			<ellipse class="st72" transform="matrix(.4351 -.9004 .9004 .4351 -71.277 1021.6)" cx="778.5" cy="567.6" rx="8.4" ry="5.4"/>
			<path class="st70" d="m293.9 534.1s-9-11.8-7.3-28.7 11.9-22.7 18.6-24.9 12.4-2.8 21.4-2.1c9 0.8 12.2 22.8 4.1 37.5s-26.7 24.8-36.8 18.2z"/>
			<ellipse class="st62" transform="matrix(.5 -.866 .866 .5 -283.76 527.37)" cx="314.8" cy="509.4" rx="38.9" ry="22.6"/>
			<polygon class="st62" points="295.4 543.1 377.6 590.5 416.9 523.5 334.7 476"/>
			<polygon class="st60" points="285.2 565.4 357.7 607.4 379.7 594.4 307.2 552.6"/>
			<polygon class="st70" points="294.6 565.1 357.4 601.2 377.6 589.3 314.7 553.4"/>
			<polygon class="st62" points="357.7 607.4 357.7 615.7 285.2 573.6 285.2 565.4"/>
			<polygon class="st73" points="379.7 535.8 379.7 544.1 307.2 502 307.2 493.8"/>
			<polygon class="st69" points="379.7 594.4 379.7 602.8 357.7 615.7 357.7 607.4"/>
				<path d="m413.7 552.1v0.2c0.8 0 1.5 0.2 2.1 0.5 3.2 1.8 3.1 7.8 0 13.3-2.5 4.3-6.3 7.2-9.4 7.2-0.8 0-1.5-0.2-2.1-0.5-1.5-0.9-2.3-2.7-2.3-5.2s0.8-5.4 2.4-8.1c2.5-4.3 6.3-7.2 9.4-7.2v-0.2m-0.1 0c-3.1 0-7 2.8-9.6 7.4-3.3 5.6-3.2 11.8 0 13.7 0.7 0.4 1.4 0.6 2.2 0.6 3.1 0 7-2.8 9.6-7.4 3.3-5.6 3.2-11.8 0-13.7-0.7-0.4-1.4-0.6-2.2-0.6z"/>
			<polygon class="st62" points="357.9 580.8 364.8 585.1 355.6 598.7 348.6 594.7"/>
			<polygon class="st60" points="298.1 507.3 370.6 549.4 379.7 544.1 307.2 502"/>
			<polygon class="st60" points="306.8 482.1 357.7 511.3 357.7 523 313.4 497.6"/>
			<polygon class="st73" points="306.8 482.1 357.7 511.3 376.3 500 325.8 470.9"/>
				<polygon class="st60" points="384.2 522.4 384.2 538.5 357.7 523 357.7 507"/>
				<polygon class="st70" points="411.8 506.1 411.8 522.4 384.2 538.5 384.2 522.4"/>
				<polygon class="st73" points="357.7 507 385.2 490.9 411.8 506.1 384.2 522.4"/>
			<polygon class="st60" points="306.8 482.1 301.2 490.3 313.4 497.6"/>
			<polygon class="st69" points="345.3 524.1 336.1 529.5 345.3 515.9"/>
			<polygon class="st69" points="361.4 533.5 352.2 539 361.4 525.3"/>
			<polygon class="st69" points="324 511.7 314.8 517.2 324 503.5"/>
			<polygon class="st62" points="318.6 500.3 324 503.5 314.8 517.2 309.4 514"/>
		<path class="st71" d="m388.5 577.1c-9.9 8.7-21 12.1-28.8 7.5-6.6-3.8-9.5-12.4-8.7-22.7 0.5-6.4 2.4-13.5 5.7-20.6l3.4 2c-7.5 16.8-6.3 33.5 3.5 39.1 6.7 3.9 16.1 1.5 24.9-5.3z"/>
			<polygon class="st62" points="331.6 507.9 345.3 515.9 336.1 529.5 322.4 521.5"/>
			<polygon class="st62" points="327.5 563.5 341.2 571.5 332 585.1 318.2 577.3"/>
			<polygon class="st62" points="354.5 521.1 361.4 525.3 352.2 539 345.3 534.7"/>
			<polygon class="st62" points="306.3 551.5 313.2 555.7 304.1 569.2 297.1 565.1"/>
		<path class="st8" d="m359.6 584.6l-51.9-30c-10.7-6.2-11.7-24.9-2.9-43.5l42 24.4 9.9 5.7c-3.3 7.1-5.2 14.2-5.7 20.6-0.9 10.4 2 19 8.6 22.8z"/>
			<polygon class="st73" points="364.9 537.4 367 538.6 367 608.2 364.9 607"/>
			<polygon class="st69" points="423 505.6 423 575.5 367 608.2 367 538.6"/>
			<ellipse class="st60" transform="matrix(.5 -.866 .866 .5 -283.78 622.25)" cx="397" cy="556.9" rx="38.9" ry="22.6"/>
			<polygon class="st60" points="423 505.6 421 504.4 364.9 537.4 367 538.6"/>
			<polygon class="st60" points="377.6 590.5 388 596.5 426.8 529.2 416.9 523.5"/>
			<ellipse class="st69" transform="matrix(.5 -.866 .866 .5 -283.78 634.26)" cx="407.4" cy="562.9" rx="38.9" ry="22.6"/>
				<path d="m417.4 541.4c1.6 0 3 0.4 4.3 1.1 6.5 3.7 6.5 15.9 0 27.1-5.1 8.8-12.8 14.7-19.2 14.7-1.6 0-3-0.4-4.3-1.1-6.5-3.7-6.5-15.9 0-27.1 5.1-8.8 12.8-14.7 19.2-14.7m0-0.2c-6.3 0-14.2 5.7-19.4 14.8-6.6 11.4-6.5 23.7 0.1 27.5 1.3 0.8 2.8 1.1 4.4 1.1 6.3 0 14.2-5.7 19.4-14.8 6.6-11.4 6.5-23.7-0.1-27.5-1.3-0.7-2.8-1.1-4.4-1.1z"/>
		<ellipse class="st71" transform="matrix(.5 -.866 .866 .5 -282.49 636.5)" cx="410" cy="562.9" rx="23.7" ry="13.8"/>
			<ellipse class="st69" transform="matrix(.5 -.866 .866 .5 -282.49 636.5)" cx="410" cy="562.9" rx="9.8" ry="5.7"/>
			<ellipse class="st70" transform="matrix(.5 -.866 .866 .5 -282.49 636.5)" cx="410" cy="562.9" rx="5.1" ry="3"/>
			<ellipse class="st72" transform="matrix(.2642 -.9645 .9645 .2642 -249.42 758.28)" cx="372.3" cy="542.6" rx="3" ry="1.8"/>
			<ellipse class="st72" transform="matrix(.2642 -.9645 .9645 .2642 -304.38 800.21)" cx="372.3" cy="599.6" rx="3" ry="1.8"/>
			<ellipse class="st72" transform="matrix(.2642 -.9645 .9645 .2642 -187.74 782.18)" cx="418.8" cy="514.1" rx="3" ry="1.8"/>
		<polygon class="st72" points="318.9 485.5 332.7 477.4 339.7 481.4 325.8 489.6"/>
		<polygon class="st72" points="328 490.8 341.8 482.7 348.8 486.7 334.9 494.9"/>
		<polygon class="st72" points="345.3 500.4 359.1 492.3 366.1 496.3 352.3 504.4"/>
			<rect class="st70" transform="matrix(.5 -.866 .866 .5 -282.49 646.22)" x="413.3" y="558" width="10.3" height="19.5"/>
		<ellipse class="st8" transform="matrix(.5 -.866 .866 .5 -282.49 655.95)" cx="426.8" cy="572.6" rx="5.1" ry="3"/>
		<rect class="st8" transform="matrix(.5 -.866 .866 .5 -282.49 657.3)" x="422.9" y="571.9" width="10.3" height="2.7"/>
		<ellipse class="st71" transform="matrix(.5 -.866 .866 .5 -282.49 658.65)" cx="429.2" cy="574" rx="5.1" ry="3"/>
		<ellipse class="st8" transform="matrix(.5 -.866 .866 .5 -282.49 660.56)" cx="430.8" cy="574.9" rx="3.3" ry="1.9"/>
		<line class="st76" x1="410.1" x2="410.1" y1="545.9" y2="553.1"/>
		<line class="st76" x1="412" x2="412" y1="544.7" y2="551.9"/>
		<line class="st76" x1="407.9" x2="407.9" y1="546.9" y2="554.1"/>
		<line class="st76" x1="410.1" x2="410.1" y1="572.8" y2="580"/>
		<line class="st76" x1="412" x2="412" y1="571.7" y2="578.9"/>
		<line class="st76" x1="407.9" x2="407.9" y1="573.8" y2="581"/>
		<line class="st76" x1="306.1" x2="347.9" y1="519.3" y2="543.5"/>
		<line class="st76" x1="304.3" x2="346.1" y1="524" y2="548.3"/>
		<line class="st76" x1="303.1" x2="345" y1="529.1" y2="553.4"/>
		<line class="st76" x1="302.6" x2="344.4" y1="534.1" y2="558.4"/>
		<line class="st76" x1="303.1" x2="345" y1="539.8" y2="564.1"/>
		<line class="st76" x1="304.3" x2="346.1" y1="545.4" y2="569.7"/>
		<line class="st76" x1="306.1" x2="347.9" y1="550.7" y2="575"/>
</svg>
